<svg width="342" height="449" viewBox="0 0 342 449" fill="none" xmlns="http://www.w3.org/2000/svg">
<path d="M202.908 291.855L214.273 291.793M208.836 276.538C205.048 276.559 203.744 301.386 208.836 300.836C213.928 300.286 212.624 276.518 208.836 276.538Z" stroke="#37271A" stroke-width="2" stroke-linecap="round"/>
<path d="M224.881 282.267L225.413 270.914M209.895 275.549C209.717 279.333 234.444 281.929 234.16 276.815C233.877 271.702 210.072 271.766 209.895 275.549Z" stroke="#37271A" stroke-width="2" stroke-linecap="round"/>
<path d="M220.075 292.708C220.648 292.12 221.278 291.763 221.792 291.628C222.329 291.486 222.56 291.615 222.627 291.681C222.694 291.746 222.829 291.973 222.701 292.514C222.579 293.032 222.238 293.67 221.665 294.258C221.091 294.846 220.462 295.203 219.947 295.339C219.41 295.48 219.179 295.351 219.112 295.286C219.045 295.22 218.91 294.993 219.038 294.452C219.161 293.934 219.501 293.296 220.075 292.708Z" stroke="#37271A" stroke-width="2"/>
<path d="M227.609 285.09C228.183 284.502 228.812 284.145 229.327 284.01C229.864 283.868 230.095 283.997 230.162 284.063C230.229 284.128 230.364 284.355 230.236 284.896C230.113 285.414 229.773 286.052 229.199 286.64C228.626 287.228 227.996 287.585 227.482 287.72C226.944 287.862 226.714 287.733 226.647 287.667C226.58 287.602 226.445 287.375 226.573 286.834C226.695 286.316 227.036 285.678 227.609 285.09Z" stroke="#37271A" stroke-width="2"/>
<path d="M218.04 301.071L218.756 321.996" stroke="#37271A" stroke-width="2" stroke-linecap="round"/>
<path d="M222.351 313.04L215.375 313.279" stroke="#37271A" stroke-width="2" stroke-linecap="round"/>
<path d="M222.244 321.875L215.268 322.114" stroke="#37271A" stroke-width="2" stroke-linecap="round"/>
<path d="M223.622 299.727L229.553 319.807" stroke="#37271A" stroke-width="2" stroke-linecap="round"/>
<path d="M230.792 310.236L224.099 312.213" stroke="#37271A" stroke-width="2" stroke-linecap="round"/>
<path d="M232.899 318.818L226.206 320.796" stroke="#37271A" stroke-width="2" stroke-linecap="round"/>
<path d="M228.457 297.854L242.207 313.644" stroke="#37271A" stroke-width="2" stroke-linecap="round"/>
<path d="M239.353 304.431L234.088 309.014" stroke="#37271A" stroke-width="2" stroke-linecap="round"/>
<path d="M244.84 311.355L239.576 315.939" stroke="#37271A" stroke-width="2" stroke-linecap="round"/>
<path d="M232.488 294.078L250.261 305.148" stroke="#37271A" stroke-width="2" stroke-linecap="round"/>
<path d="M244.83 297.171L241.14 303.095" stroke="#37271A" stroke-width="2" stroke-linecap="round"/>
<path d="M252.105 302.187L248.414 308.111" stroke="#37271A" stroke-width="2" stroke-linecap="round"/>
<path d="M235.11 288.323L255.555 292.842" stroke="#37271A" stroke-width="2" stroke-linecap="round"/>
<path d="M247.781 287.132L246.274 293.947" stroke="#37271A" stroke-width="2" stroke-linecap="round"/>
<path d="M256.311 289.435L254.804 296.249" stroke="#37271A" stroke-width="2" stroke-linecap="round"/>
<path d="M234.665 282.334L255.605 282.348" stroke="#37271A" stroke-width="2" stroke-linecap="round"/>
<path d="M246.78 278.443L246.775 285.423" stroke="#37271A" stroke-width="2" stroke-linecap="round"/>
<path d="M255.606 278.861L255.601 285.841" stroke="#37271A" stroke-width="2" stroke-linecap="round"/>
<path d="M221.326 333.144L222.046 326.411" stroke="#37271A" stroke-width="2" stroke-linecap="round"/>
<path d="M225.053 330.137L218.32 329.417" stroke="#37271A" stroke-width="2" stroke-linecap="round"/>
<path d="M231.523 329.674L238.084 328.001" stroke="#37271A" stroke-width="2" stroke-linecap="round"/>
<path d="M235.638 332.115L233.965 325.554" stroke="#37271A" stroke-width="2" stroke-linecap="round"/>
<path d="M243.088 323.041L248.979 319.702" stroke="#37271A" stroke-width="2" stroke-linecap="round"/>
<path d="M247.705 324.316L244.366 318.426" stroke="#37271A" stroke-width="2" stroke-linecap="round"/>
<path d="M256.066 313L259.846 307.382" stroke="#37271A" stroke-width="2" stroke-linecap="round"/>
<path d="M260.766 312.082L255.148 308.302" stroke="#37271A" stroke-width="2" stroke-linecap="round"/>
<path d="M260.251 303.002L264.032 297.384" stroke="#37271A" stroke-width="2" stroke-linecap="round"/>
<path d="M264.951 302.084L259.333 298.304" stroke="#37271A" stroke-width="2" stroke-linecap="round"/>
<path d="M262.329 291.846L266.109 286.228" stroke="#37271A" stroke-width="2" stroke-linecap="round"/>
<path d="M267.027 290.925L261.409 287.145" stroke="#37271A" stroke-width="2" stroke-linecap="round"/>
<path d="M237.804 246.398L248.597 242.837M238.724 230C235.127 231.187 241.536 255.208 246.211 253.116C250.886 251.023 242.321 228.814 238.724 230Z" stroke="#37271A" stroke-width="2" stroke-linecap="round"/>
<path d="M255.754 230.506L252.762 219.542M239.427 228.733C240.424 232.388 264.747 227.238 262.902 222.461C261.056 217.683 238.43 225.079 239.427 228.733Z" stroke="#37271A" stroke-width="2" stroke-linecap="round"/>
<path d="M254.397 241.919C254.762 241.183 255.251 240.649 255.699 240.362C256.166 240.062 256.425 240.113 256.509 240.155C256.593 240.196 256.792 240.371 256.837 240.925C256.879 241.455 256.752 242.168 256.388 242.904C256.024 243.64 255.534 244.173 255.087 244.461C254.619 244.761 254.36 244.709 254.276 244.668C254.192 244.626 253.994 244.451 253.949 243.898C253.906 243.367 254.033 242.655 254.397 241.919Z" stroke="#37271A" stroke-width="2"/>
<path d="M259.218 232.349C259.583 231.613 260.072 231.079 260.519 230.791C260.987 230.491 261.246 230.543 261.33 230.585C261.414 230.626 261.612 230.801 261.657 231.355C261.7 231.885 261.573 232.597 261.209 233.333C260.844 234.069 260.355 234.603 259.907 234.891C259.44 235.191 259.18 235.139 259.097 235.097C259.013 235.056 258.814 234.881 258.769 234.327C258.727 233.797 258.854 233.084 259.218 232.349Z" stroke="#37271A" stroke-width="2"/>
<path d="M255.042 250.501L262.172 270.187" stroke="#37271A" stroke-width="2" stroke-linecap="round"/>
<path d="M262.832 260.56L256.269 262.937" stroke="#37271A" stroke-width="2" stroke-linecap="round"/>
<path d="M265.452 268.999L258.889 271.376" stroke="#37271A" stroke-width="2" stroke-linecap="round"/>
<path d="M259.939 247.503L271.769 264.778" stroke="#37271A" stroke-width="2" stroke-linecap="round"/>
<path d="M270 255.29L264.241 259.234" stroke="#37271A" stroke-width="2" stroke-linecap="round"/>
<path d="M274.647 262.807L268.889 266.75" stroke="#37271A" stroke-width="2" stroke-linecap="round"/>
<path d="M263.96 244.232L281.907 255.017" stroke="#37271A" stroke-width="2" stroke-linecap="round"/>
<path d="M276.351 247.13L272.755 253.112" stroke="#37271A" stroke-width="2" stroke-linecap="round"/>
<path d="M283.707 252.027L280.111 258.01" stroke="#37271A" stroke-width="2" stroke-linecap="round"/>
<path d="M266.632 239.398L286.951 244.452" stroke="#37271A" stroke-width="2" stroke-linecap="round"/>
<path d="M279.326 238.536L277.641 245.309" stroke="#37271A" stroke-width="2" stroke-linecap="round"/>
<path d="M287.793 241.067L286.108 247.84" stroke="#37271A" stroke-width="2" stroke-linecap="round"/>
<path d="M267.351 233.117L288.194 231.115" stroke="#37271A" stroke-width="2" stroke-linecap="round"/>
<path d="M279.038 228.078L279.704 235.026" stroke="#37271A" stroke-width="2" stroke-linecap="round"/>
<path d="M287.862 227.641L288.529 234.588" stroke="#37271A" stroke-width="2" stroke-linecap="round"/>
<path d="M265.084 227.553L285.009 221.114" stroke="#37271A" stroke-width="2" stroke-linecap="round"/>
<path d="M275.41 220.117L277.556 226.758" stroke="#37271A" stroke-width="2" stroke-linecap="round"/>
<path d="M283.937 217.794L286.083 224.435" stroke="#37271A" stroke-width="2" stroke-linecap="round"/>
<path d="M268.05 280.001L266.66 273.374" stroke="#37271A" stroke-width="2" stroke-linecap="round"/>
<path d="M270.669 275.992L264.042 277.382" stroke="#37271A" stroke-width="2" stroke-linecap="round"/>
<path d="M276.681 273.559L282.408 269.945" stroke="#37271A" stroke-width="2" stroke-linecap="round"/>
<path d="M281.35 274.613L277.737 268.887" stroke="#37271A" stroke-width="2" stroke-linecap="round"/>
<path d="M285.637 263.685L290.212 258.693" stroke="#37271A" stroke-width="2" stroke-linecap="round"/>
<path d="M290.422 263.477L285.431 258.902" stroke="#37271A" stroke-width="2" stroke-linecap="round"/>
<path d="M294.893 250.135L296.758 243.626" stroke="#37271A" stroke-width="2" stroke-linecap="round"/>
<path d="M299.081 247.813L292.572 245.949" stroke="#37271A" stroke-width="2" stroke-linecap="round"/>
<path d="M295.791 239.335L297.656 232.826" stroke="#37271A" stroke-width="2" stroke-linecap="round"/>
<path d="M299.979 237.013L293.47 235.148" stroke="#37271A" stroke-width="2" stroke-linecap="round"/>
<path d="M294.333 228.077L296.199 221.568" stroke="#37271A" stroke-width="2" stroke-linecap="round"/>
<path d="M298.519 225.753L292.009 223.888" stroke="#37271A" stroke-width="2" stroke-linecap="round"/>
<path d="M180.798 306.925L177.91 317.917M164.489 308.853C165.451 305.189 189.822 310.106 188.021 314.901C186.221 319.696 163.526 312.517 164.489 308.853Z" stroke="#37271A" stroke-width="2" stroke-linecap="round"/>
<path d="M166.043 325.819L154.916 323.509M163.268 309.632C166.976 310.402 163.336 334.997 158.454 333.449C153.572 331.902 159.559 308.862 163.268 309.632Z" stroke="#37271A" stroke-width="2" stroke-linecap="round"/>
<path d="M177.352 323.762C176.64 324.171 176.137 324.692 175.878 325.157C175.607 325.642 175.675 325.898 175.721 325.979C175.768 326.06 175.955 326.247 176.51 326.258C177.042 326.268 177.745 326.097 178.458 325.688C179.17 325.279 179.672 324.758 179.931 324.293C180.202 323.808 180.134 323.553 180.088 323.472C180.041 323.391 179.855 323.203 179.299 323.193C178.767 323.182 178.064 323.353 177.352 323.762Z" stroke="#37271A" stroke-width="2"/>
<path d="M168.097 329.165C167.385 329.574 166.882 330.095 166.623 330.559C166.352 331.044 166.42 331.3 166.467 331.381C166.513 331.462 166.7 331.65 167.255 331.66C167.787 331.671 168.49 331.499 169.203 331.091C169.915 330.682 170.417 330.161 170.677 329.696C170.947 329.211 170.88 328.955 170.833 328.874C170.786 328.793 170.6 328.606 170.044 328.595C169.512 328.585 168.809 328.756 168.097 329.165Z" stroke="#37271A" stroke-width="2"/>
<path d="M185.957 323.877L206.046 329.779" stroke="#37271A" stroke-width="2" stroke-linecap="round"/>
<path d="M196.478 331.032L198.446 324.336" stroke="#37271A" stroke-width="2" stroke-linecap="round"/>
<path d="M205.062 333.127L207.03 326.43" stroke="#37271A" stroke-width="2" stroke-linecap="round"/>
<path d="M183.267 328.95L201.238 339.693" stroke="#37271A" stroke-width="2" stroke-linecap="round"/>
<path d="M191.66 338.511L195.241 332.52" stroke="#37271A" stroke-width="2" stroke-linecap="round"/>
<path d="M199.447 342.688L203.028 336.696" stroke="#37271A" stroke-width="2" stroke-linecap="round"/>
<path d="M180.248 333.168L192.119 350.415" stroke="#37271A" stroke-width="2" stroke-linecap="round"/>
<path d="M183.904 345.357L189.653 341.4" stroke="#37271A" stroke-width="2" stroke-linecap="round"/>
<path d="M189.247 352.396L194.996 348.438" stroke="#37271A" stroke-width="2" stroke-linecap="round"/>
<path d="M175.589 336.131L181.887 356.1" stroke="#37271A" stroke-width="2" stroke-linecap="round"/>
<path d="M175.511 348.854L182.167 346.754" stroke="#37271A" stroke-width="2" stroke-linecap="round"/>
<path d="M178.56 357.149L185.216 355.05" stroke="#37271A" stroke-width="2" stroke-linecap="round"/>
<path d="M169.366 337.236L168.653 358.163" stroke="#37271A" stroke-width="2" stroke-linecap="round"/>
<path d="M165.057 349.212L172.032 349.449" stroke="#37271A" stroke-width="2" stroke-linecap="round"/>
<path d="M165.165 358.047L172.14 358.284" stroke="#37271A" stroke-width="2" stroke-linecap="round"/>
<path d="M163.673 335.315L158.475 355.599" stroke="#37271A" stroke-width="2" stroke-linecap="round"/>
<path d="M156.889 346.079L163.649 347.812" stroke="#37271A" stroke-width="2" stroke-linecap="round"/>
<path d="M155.095 354.733L161.856 356.466" stroke="#37271A" stroke-width="2" stroke-linecap="round"/>
<path d="M216.206 335.041L209.506 334.063" stroke="#37271A" stroke-width="2" stroke-linecap="round"/>
<path d="M212.367 337.903L213.345 331.203" stroke="#37271A" stroke-width="2" stroke-linecap="round"/>
<path d="M210.31 344.054L207.056 349.992" stroke="#37271A" stroke-width="2" stroke-linecap="round"/>
<path d="M211.649 348.647L205.711 345.394" stroke="#37271A" stroke-width="2" stroke-linecap="round"/>
<path d="M201.004 353.603L196.303 358.477" stroke="#37271A" stroke-width="2" stroke-linecap="round"/>
<path d="M201.09 358.393L196.217 353.692" stroke="#37271A" stroke-width="2" stroke-linecap="round"/>
<path d="M188.05 363.678L181.669 365.941" stroke="#37271A" stroke-width="2" stroke-linecap="round"/>
<path d="M185.992 368.001L183.729 361.619" stroke="#37271A" stroke-width="2" stroke-linecap="round"/>
<path d="M177.323 365.236L170.941 367.499" stroke="#37271A" stroke-width="2" stroke-linecap="round"/>
<path d="M175.265 369.559L173.002 363.177" stroke="#37271A" stroke-width="2" stroke-linecap="round"/>
<path d="M166.002 364.477L159.621 366.74" stroke="#37271A" stroke-width="2" stroke-linecap="round"/>
<path d="M163.94 368.797L161.678 362.415" stroke="#37271A" stroke-width="2" stroke-linecap="round"/>
<path d="M134.494 326.696L127.182 335.397M118.926 321.464C121.363 318.564 141.29 333.431 137.612 336.995C133.934 340.56 116.489 324.364 118.926 321.464Z" stroke="#37271A" stroke-width="2" stroke-linecap="round"/>
<path d="M113.076 337.468L104.006 330.62M117.489 321.649C120.513 323.931 106.704 344.606 102.953 341.119C99.2016 337.632 114.466 319.366 117.489 321.649Z" stroke="#37271A" stroke-width="2" stroke-linecap="round"/>
<path d="M124.178 340.444C123.359 340.509 122.682 340.765 122.249 341.074C121.797 341.397 121.749 341.657 121.756 341.75C121.763 341.843 121.852 342.093 122.35 342.34C122.826 342.576 123.535 342.722 124.354 342.657C125.172 342.592 125.849 342.336 126.282 342.027C126.735 341.704 126.783 341.444 126.775 341.351C126.768 341.258 126.679 341.008 126.182 340.761C125.705 340.525 124.996 340.379 124.178 340.444Z" stroke="#37271A" stroke-width="2"/>
<path d="M113.503 341.368C112.684 341.434 112.007 341.69 111.574 341.999C111.122 342.322 111.074 342.582 111.081 342.675C111.089 342.768 111.177 343.017 111.675 343.265C112.151 343.501 112.86 343.647 113.679 343.582C114.497 343.517 115.174 343.261 115.608 342.952C116.06 342.629 116.108 342.369 116.101 342.276C116.093 342.183 116.004 341.933 115.507 341.686C115.03 341.449 114.321 341.303 113.503 341.368Z" stroke="#37271A" stroke-width="2"/>
<path d="M131.91 344.224L147.545 358.15" stroke="#37271A" stroke-width="2" stroke-linecap="round"/>
<path d="M138.36 355.19L143.003 349.979" stroke="#37271A" stroke-width="2" stroke-linecap="round"/>
<path d="M145.223 360.755L149.866 355.543" stroke="#37271A" stroke-width="2" stroke-linecap="round"/>
<path d="M127.309 347.658L138.96 365.054" stroke="#37271A" stroke-width="2" stroke-linecap="round"/>
<path d="M130.806 359.889L136.605 356.005" stroke="#37271A" stroke-width="2" stroke-linecap="round"/>
<path d="M136.06 366.994L141.859 363.11" stroke="#37271A" stroke-width="2" stroke-linecap="round"/>
<path d="M122.777 350.181L126.132 370.848" stroke="#37271A" stroke-width="2" stroke-linecap="round"/>
<path d="M120.869 362.763L127.759 361.644" stroke="#37271A" stroke-width="2" stroke-linecap="round"/>
<path d="M122.688 371.409L129.578 370.29" stroke="#37271A" stroke-width="2" stroke-linecap="round"/>
<path d="M117.298 350.866L114.451 371.61" stroke="#37271A" stroke-width="2" stroke-linecap="round"/>
<path d="M111.787 362.335L118.702 363.283" stroke="#37271A" stroke-width="2" stroke-linecap="round"/>
<path d="M110.994 371.136L117.909 372.084" stroke="#37271A" stroke-width="2" stroke-linecap="round"/>
<path d="M111.198 349.206L101.604 367.817" stroke="#37271A" stroke-width="2" stroke-linecap="round"/>
<path d="M102.183 358.188L108.387 361.386" stroke="#37271A" stroke-width="2" stroke-linecap="round"/>
<path d="M98.501 366.221L104.705 369.418" stroke="#37271A" stroke-width="2" stroke-linecap="round"/>
<path d="M106.873 345.036L93.4994 361.148" stroke="#37271A" stroke-width="2" stroke-linecap="round"/>
<path d="M96.1372 351.865L101.508 356.322" stroke="#37271A" stroke-width="2" stroke-linecap="round"/>
<path d="M90.8149 358.921L96.1855 363.378" stroke="#37271A" stroke-width="2" stroke-linecap="round"/>
<path d="M154.475 367.251L148.837 363.502" stroke="#37271A" stroke-width="2" stroke-linecap="round"/>
<path d="M149.781 368.197L153.531 362.559" stroke="#37271A" stroke-width="2" stroke-linecap="round"/>
<path d="M145.293 372.879L139.812 376.856" stroke="#37271A" stroke-width="2" stroke-linecap="round"/>
<path d="M144.54 377.605L140.563 372.125" stroke="#37271A" stroke-width="2" stroke-linecap="round"/>
<path d="M132.799 377.529L126.465 379.925" stroke="#37271A" stroke-width="2" stroke-linecap="round"/>
<path d="M130.828 381.896L128.432 375.564" stroke="#37271A" stroke-width="2" stroke-linecap="round"/>
<path d="M116.779 381.097L110.042 380.413" stroke="#37271A" stroke-width="2" stroke-linecap="round"/>
<path d="M113.068 384.125L113.752 377.389" stroke="#37271A" stroke-width="2" stroke-linecap="round"/>
<path d="M106.419 377.921L99.6829 377.238" stroke="#37271A" stroke-width="2" stroke-linecap="round"/>
<path d="M102.709 380.947L103.393 374.211" stroke="#37271A" stroke-width="2" stroke-linecap="round"/>
<path d="M96.5078 372.391L89.7712 371.707" stroke="#37271A" stroke-width="2" stroke-linecap="round"/>
<path d="M92.7964 375.414L93.4804 368.678" stroke="#37271A" stroke-width="2" stroke-linecap="round"/>
<path d="M302.787 217.076C314.508 241.274 300.684 275.928 271.152 284.155C274.616 311.743 254.27 338.238 220.051 338.509C214.591 364.805 180.495 385.975 154.937 370.565C138.643 401.375 96.0504 392.761 82.7368 376.189" stroke="#37271A" stroke-width="2" stroke-linecap="round"/>
<path d="M254.932 204.683L261.272 195.251M245.6 191.168C243.487 194.312 263.283 209.353 265.692 204.833C268.1 200.313 247.714 188.025 245.6 191.168Z" stroke="#37271A" stroke-width="2" stroke-linecap="round"/>
<path d="M259.361 181.122L250.273 174.298M245.378 189.736C248.407 192.011 264.459 173.025 260.071 170.384C255.683 167.742 242.349 187.462 245.378 189.736Z" stroke="#37271A" stroke-width="2" stroke-linecap="round"/>
<path d="M265.291 190.969C265.128 190.164 265.187 189.443 265.364 188.941C265.549 188.417 265.786 188.299 265.877 188.28C265.969 188.262 266.233 188.278 266.608 188.688C266.967 189.08 267.304 189.721 267.467 190.526C267.631 191.331 267.572 192.052 267.395 192.554C267.21 193.078 266.973 193.196 266.881 193.214C266.79 193.233 266.526 193.217 266.151 192.807C265.791 192.414 265.455 191.774 265.291 190.969Z" stroke="#37271A" stroke-width="2"/>
<path d="M263.229 180.453C263.065 179.649 263.124 178.927 263.301 178.425C263.486 177.902 263.723 177.783 263.815 177.765C263.906 177.746 264.17 177.762 264.545 178.172C264.905 178.565 265.241 179.206 265.405 180.01C265.569 180.815 265.509 181.536 265.332 182.038C265.147 182.562 264.91 182.68 264.819 182.699C264.727 182.717 264.463 182.701 264.088 182.291C263.729 181.899 263.392 181.258 263.229 180.453Z" stroke="#37271A" stroke-width="2"/>
<path d="M271.061 197.353L288.767 208.529" stroke="#37271A" stroke-width="2" stroke-linecap="round"/>
<path d="M283.383 200.521L279.658 206.423" stroke="#37271A" stroke-width="2" stroke-linecap="round"/>
<path d="M290.628 205.578L286.903 211.481" stroke="#37271A" stroke-width="2" stroke-linecap="round"/>
<path d="M273.09 191.982L293.029 198.37" stroke="#37271A" stroke-width="2" stroke-linecap="round"/>
<path d="M285.812 191.963L283.682 198.61" stroke="#37271A" stroke-width="2" stroke-linecap="round"/>
<path d="M294.094 195.048L291.964 201.695" stroke="#37271A" stroke-width="2" stroke-linecap="round"/>
<path d="M274.261 186.931L295.05 184.442" stroke="#37271A" stroke-width="2" stroke-linecap="round"/>
<path d="M285.826 181.62L286.655 188.55" stroke="#37271A" stroke-width="2" stroke-linecap="round"/>
<path d="M294.638 180.978L295.467 187.908" stroke="#37271A" stroke-width="2" stroke-linecap="round"/>
<path d="M273.405 181.474L292.553 173.004" stroke="#37271A" stroke-width="2" stroke-linecap="round"/>
<path d="M282.903 173.008L285.726 179.391" stroke="#37271A" stroke-width="2" stroke-linecap="round"/>
<path d="M291.141 169.813L293.964 176.197" stroke="#37271A" stroke-width="2" stroke-linecap="round"/>
<path d="M270.121 176.069L285.356 161.705" stroke="#37271A" stroke-width="2" stroke-linecap="round"/>
<path d="M276.262 164.922L281.049 170" stroke="#37271A" stroke-width="2" stroke-linecap="round"/>
<path d="M282.963 159.164L287.751 164.242" stroke="#37271A" stroke-width="2" stroke-linecap="round"/>
<path d="M264.919 173.07L276.706 155.763" stroke="#37271A" stroke-width="2" stroke-linecap="round"/>
<path d="M268.514 160.863L274.282 164.792" stroke="#37271A" stroke-width="2" stroke-linecap="round"/>
<path d="M273.824 153.8L279.592 157.729" stroke="#37271A" stroke-width="2" stroke-linecap="round"/>
<path d="M299.43 212.673L294.268 208.291" stroke="#37271A" stroke-width="2" stroke-linecap="round"/>
<path d="M299.041 207.9L294.659 213.063" stroke="#37271A" stroke-width="2" stroke-linecap="round"/>
<path d="M302.296 202.291L304.603 195.925" stroke="#37271A" stroke-width="2" stroke-linecap="round"/>
<path d="M306.629 200.262L300.263 197.955" stroke="#37271A" stroke-width="2" stroke-linecap="round"/>
<path d="M303.315 188.997L303.867 182.248" stroke="#37271A" stroke-width="2" stroke-linecap="round"/>
<path d="M306.966 185.896L300.218 185.345" stroke="#37271A" stroke-width="2" stroke-linecap="round"/>
<path d="M302.311 172.619L299.792 166.334" stroke="#37271A" stroke-width="2" stroke-linecap="round"/>
<path d="M304.195 168.216L297.911 170.735" stroke="#37271A" stroke-width="2" stroke-linecap="round"/>
<path d="M296.398 163.536L293.879 157.251" stroke="#37271A" stroke-width="2" stroke-linecap="round"/>
<path d="M298.281 159.134L291.996 161.653" stroke="#37271A" stroke-width="2" stroke-linecap="round"/>
<path d="M288.341 155.545L285.822 149.26" stroke="#37271A" stroke-width="2" stroke-linecap="round"/>
<path d="M290.222 151.142L283.937 153.661" stroke="#37271A" stroke-width="2" stroke-linecap="round"/>
<path d="M286.943 143.923C311.704 156.574 322.169 188.297 303.149 216.745" stroke="#37271A" stroke-width="2" stroke-linecap="round"/>
<path d="M243.273 168.971L241.129 157.81M227.129 165.951C227.844 169.671 252.489 166.402 251.015 161.497C249.541 156.593 226.415 162.232 227.129 165.951Z" stroke="#37271A" stroke-width="2" stroke-linecap="round"/>
<path d="M229.819 149.128L218.561 150.687M225.963 165.092C229.715 164.573 227.734 139.79 222.759 141.006C217.784 142.222 222.211 165.612 225.963 165.092Z" stroke="#37271A" stroke-width="2" stroke-linecap="round"/>
<path d="M240.965 151.939C240.281 151.483 239.815 150.93 239.588 150.449C239.35 149.947 239.435 149.696 239.487 149.618C239.539 149.54 239.738 149.366 240.292 149.393C240.824 149.418 241.514 149.636 242.197 150.092C242.88 150.548 243.346 151.102 243.574 151.583C243.812 152.085 243.727 152.335 243.675 152.413C243.623 152.491 243.424 152.665 242.869 152.639C242.338 152.613 241.648 152.395 240.965 151.939Z" stroke="#37271A" stroke-width="2"/>
<path d="M232.093 145.929C231.41 145.473 230.944 144.919 230.717 144.438C230.479 143.936 230.564 143.685 230.616 143.607C230.668 143.53 230.866 143.355 231.421 143.382C231.953 143.408 232.643 143.626 233.326 144.081C234.009 144.537 234.475 145.091 234.703 145.572C234.941 146.074 234.856 146.325 234.804 146.402C234.752 146.48 234.553 146.655 233.998 146.628C233.467 146.602 232.777 146.384 232.093 145.929Z" stroke="#37271A" stroke-width="2"/>
<path d="M249.558 152.407L269.997 147.867" stroke="#37271A" stroke-width="2" stroke-linecap="round"/>
<path d="M260.534 145.975L262.048 152.788" stroke="#37271A" stroke-width="2" stroke-linecap="round"/>
<path d="M269.24 144.46L270.753 151.274" stroke="#37271A" stroke-width="2" stroke-linecap="round"/>
<path d="M247.215 147.165L265.868 137.654" stroke="#37271A" stroke-width="2" stroke-linecap="round"/>
<path d="M256.231 138.189L259.402 144.407" stroke="#37271A" stroke-width="2" stroke-linecap="round"/>
<path d="M264.282 134.545L267.453 140.763" stroke="#37271A" stroke-width="2" stroke-linecap="round"/>
<path d="M244.487 142.756L257.49 126.344" stroke="#37271A" stroke-width="2" stroke-linecap="round"/>
<path d="M248.955 130.839L254.426 135.174" stroke="#37271A" stroke-width="2" stroke-linecap="round"/>
<path d="M254.757 124.176L260.227 128.511" stroke="#37271A" stroke-width="2" stroke-linecap="round"/>
<path d="M240.036 139.485L247.66 119.984" stroke="#37271A" stroke-width="2" stroke-linecap="round"/>
<path d="M240.814 126.785L247.314 129.327" stroke="#37271A" stroke-width="2" stroke-linecap="round"/>
<path d="M244.411 118.714L250.911 121.256" stroke="#37271A" stroke-width="2" stroke-linecap="round"/>
<path d="M233.898 137.963L234.592 117.035" stroke="#37271A" stroke-width="2" stroke-linecap="round"/>
<path d="M230.404 125.725L237.379 125.957" stroke="#37271A" stroke-width="2" stroke-linecap="round"/>
<path d="M231.104 116.917L238.079 117.149" stroke="#37271A" stroke-width="2" stroke-linecap="round"/>
<path d="M228.092 139.498L224.267 118.911" stroke="#37271A" stroke-width="2" stroke-linecap="round"/>
<path d="M222.046 128.302L228.908 127.027" stroke="#37271A" stroke-width="2" stroke-linecap="round"/>
<path d="M220.838 119.548L227.7 118.273" stroke="#37271A" stroke-width="2" stroke-linecap="round"/>
<path d="M280.485 143.296L273.734 143.822" stroke="#37271A" stroke-width="2" stroke-linecap="round"/>
<path d="M276.846 140.183L277.373 146.933" stroke="#37271A" stroke-width="2" stroke-linecap="round"/>
<path d="M275.206 133.907L272.359 127.764" stroke="#37271A" stroke-width="2" stroke-linecap="round"/>
<path d="M276.851 129.415L270.708 132.262" stroke="#37271A" stroke-width="2" stroke-linecap="round"/>
<path d="M266.564 123.755L262.202 118.576" stroke="#37271A" stroke-width="2" stroke-linecap="round"/>
<path d="M266.972 118.982L261.793 123.345" stroke="#37271A" stroke-width="2" stroke-linecap="round"/>
<path d="M254.314 112.837L248.099 110.15" stroke="#37271A" stroke-width="2" stroke-linecap="round"/>
<path d="M252.551 108.385L249.865 114.6" stroke="#37271A" stroke-width="2" stroke-linecap="round"/>
<path d="M243.72 110.555L237.504 107.868" stroke="#37271A" stroke-width="2" stroke-linecap="round"/>
<path d="M241.955 106.104L239.269 112.319" stroke="#37271A" stroke-width="2" stroke-linecap="round"/>
<path d="M232.372 110.558L226.157 107.871" stroke="#37271A" stroke-width="2" stroke-linecap="round"/>
<path d="M230.604 106.108L227.919 112.324" stroke="#37271A" stroke-width="2" stroke-linecap="round"/>
<path d="M223.193 103.296C249.68 94.8337 279.455 109.978 285.994 143.568" stroke="#37271A" stroke-width="2" stroke-linecap="round"/>
<path d="M194.585 55.9548L197.396 66.967M210.88 57.9983C209.944 54.3281 185.539 59.0727 187.305 63.8801C189.072 68.6876 211.817 61.6686 210.88 57.9983Z" stroke="#37271A" stroke-width="2" stroke-linecap="round"/>
<path d="M209.207 74.9529L220.35 72.7207M212.096 58.786C208.382 59.5298 211.849 84.1494 216.742 82.6362C221.635 81.1231 215.81 58.0422 212.096 58.786Z" stroke="#37271A" stroke-width="2" stroke-linecap="round"/>
<path d="M197.913 72.8165C198.622 73.2304 199.121 73.755 199.377 74.2216C199.644 74.7084 199.575 74.9637 199.528 75.0445C199.48 75.1253 199.292 75.3113 198.737 75.3181C198.205 75.3245 197.503 75.1484 196.794 74.7345C196.084 74.3205 195.586 73.7959 195.33 73.3293C195.062 72.8424 195.132 72.5872 195.179 72.5064C195.226 72.4257 195.414 72.2396 195.969 72.2329C196.502 72.2265 197.204 72.4026 197.913 72.8165Z" stroke="#37271A" stroke-width="2"/>
<path d="M207.129 78.2833C207.838 78.6972 208.337 79.2218 208.593 79.6884C208.86 80.1752 208.791 80.4305 208.743 80.5113C208.696 80.592 208.508 80.7781 207.953 80.7849C207.421 80.7913 206.719 80.6152 206.009 80.2012C205.3 79.7873 204.802 79.2627 204.545 78.7961C204.278 78.3092 204.348 78.054 204.395 77.9732C204.442 77.8925 204.63 77.7064 205.185 77.6997C205.717 77.6933 206.419 77.8694 207.129 78.2833Z" stroke="#37271A" stroke-width="2"/>
<path d="M189.307 72.8672L169.177 78.6275" stroke="#37271A" stroke-width="2" stroke-linecap="round"/>
<path d="M178.737 79.9463L176.816 73.236" stroke="#37271A" stroke-width="2" stroke-linecap="round"/>
<path d="M170.138 81.9814L168.218 75.2711" stroke="#37271A" stroke-width="2" stroke-linecap="round"/>
<path d="M191.961 77.9567L173.914 88.572" stroke="#37271A" stroke-width="2" stroke-linecap="round"/>
<path d="M183.5 87.458L179.961 81.4418" stroke="#37271A" stroke-width="2" stroke-linecap="round"/>
<path d="M175.683 91.5801L172.144 85.5639" stroke="#37271A" stroke-width="2" stroke-linecap="round"/>
<path d="M194.949 82.1951L182.956 99.3583" stroke="#37271A" stroke-width="2" stroke-linecap="round"/>
<path d="M191.205 94.3584L185.484 90.3603" stroke="#37271A" stroke-width="2" stroke-linecap="round"/>
<path d="M185.814 101.358L180.093 97.3603" stroke="#37271A" stroke-width="2" stroke-linecap="round"/>
<path d="M199.589 85.1917L193.15 105.116" stroke="#37271A" stroke-width="2" stroke-linecap="round"/>
<path d="M199.575 97.916L192.934 95.7693" stroke="#37271A" stroke-width="2" stroke-linecap="round"/>
<path d="M196.47 106.188L189.829 104.042" stroke="#37271A" stroke-width="2" stroke-linecap="round"/>
<path d="M205.807 86.3426L206.372 107.274" stroke="#37271A" stroke-width="2" stroke-linecap="round"/>
<path d="M210.03 98.3486L203.053 98.5364" stroke="#37271A" stroke-width="2" stroke-linecap="round"/>
<path d="M209.861 107.182L202.884 107.369" stroke="#37271A" stroke-width="2" stroke-linecap="round"/>
<path d="M211.51 84.4611L216.565 104.781" stroke="#37271A" stroke-width="2" stroke-linecap="round"/>
<path d="M218.218 95.2734L211.445 96.9581" stroke="#37271A" stroke-width="2" stroke-linecap="round"/>
<path d="M219.949 103.939L213.176 105.624" stroke="#37271A" stroke-width="2" stroke-linecap="round"/>
<path d="M158.983 83.8193L165.689 82.8884" stroke="#37271A" stroke-width="2" stroke-linecap="round"/>
<path d="M162.802 86.708L161.87 80.0011" stroke="#37271A" stroke-width="2" stroke-linecap="round"/>
<path d="M164.817 92.873L168.028 98.8344" stroke="#37271A" stroke-width="2" stroke-linecap="round"/>
<path d="M163.445 97.457L169.406 94.2459" stroke="#37271A" stroke-width="2" stroke-linecap="round"/>
<path d="M174.053 102.489L178.719 107.396" stroke="#37271A" stroke-width="2" stroke-linecap="round"/>
<path d="M173.933 107.277L178.839 102.612" stroke="#37271A" stroke-width="2" stroke-linecap="round"/>
<path d="M186.938 112.651L193.303 114.959" stroke="#37271A" stroke-width="2" stroke-linecap="round"/>
<path d="M188.965 116.989L191.273 110.624" stroke="#37271A" stroke-width="2" stroke-linecap="round"/>
<path d="M197.65 114.291L204.016 116.599" stroke="#37271A" stroke-width="2" stroke-linecap="round"/>
<path d="M199.679 118.628L201.986 112.262" stroke="#37271A" stroke-width="2" stroke-linecap="round"/>
<path d="M208.977 113.605L215.342 115.914" stroke="#37271A" stroke-width="2" stroke-linecap="round"/>
<path d="M211.008 117.94L213.316 111.575" stroke="#37271A" stroke-width="2" stroke-linecap="round"/>
<path d="M218.576 120.303C192.647 130.343 162.015 117.016 153.468 83.8797" stroke="#37271A" stroke-width="2" stroke-linecap="round"/>
<path d="M71.0949 405.244L62.4932 397.816M56.5564 412.883C59.4231 415.359 76.7345 397.515 72.5368 394.58C68.3391 391.646 53.6896 410.407 56.5564 412.883Z" stroke="#37271A" stroke-width="2" stroke-linecap="round"/>
<path d="M48.2372 398.015L40.3702 406.217M55.1084 412.932C57.7305 410.198 40.8118 391.98 37.6623 396.019C34.5128 400.058 52.4864 415.665 55.1084 412.932Z" stroke="#37271A" stroke-width="2" stroke-linecap="round"/>
<path d="M58.7251 393.312C57.9065 393.377 57.1975 393.232 56.7206 392.996C56.223 392.749 56.1341 392.5 56.1265 392.407C56.119 392.313 56.167 392.053 56.6188 391.73C57.0518 391.421 57.7284 391.164 58.547 391.098C59.3655 391.032 60.0745 391.178 60.5514 391.414C61.0492 391.661 61.138 391.91 61.1455 392.003C61.153 392.096 61.105 392.356 60.6532 392.679C60.2202 392.989 59.5436 393.246 58.7251 393.312Z" stroke="#37271A" stroke-width="2"/>
<path d="M48.0385 394.095C47.22 394.161 46.511 394.015 46.0341 393.779C45.5365 393.532 45.4475 393.283 45.44 393.19C45.4325 393.097 45.4804 392.836 45.9323 392.513C46.3653 392.204 47.0419 391.947 47.8605 391.881C48.679 391.815 49.388 391.961 49.8649 392.197C50.3626 392.444 50.4515 392.693 50.459 392.786C50.4665 392.879 50.4185 393.14 49.9667 393.463C49.5337 393.772 48.8571 394.029 48.0385 394.095Z" stroke="#37271A" stroke-width="2"/>
<path d="M65.7564 388.351L78.9793 372.117" stroke="#37271A" stroke-width="2" stroke-linecap="round"/>
<path d="M70.3813 376.5L75.7932 380.908" stroke="#37271A" stroke-width="2" stroke-linecap="round"/>
<path d="M76.2734 369.914L81.6853 374.322" stroke="#37271A" stroke-width="2" stroke-linecap="round"/>
<path d="M60.6691 385.69L69.4078 366.664" stroke="#37271A" stroke-width="2" stroke-linecap="round"/>
<path d="M62.1792 373.059L68.522 375.972" stroke="#37271A" stroke-width="2" stroke-linecap="round"/>
<path d="M66.2363 365.208L72.5791 368.121" stroke="#37271A" stroke-width="2" stroke-linecap="round"/>
<path d="M55.7947 383.922L55.8225 362.984" stroke="#37271A" stroke-width="2" stroke-linecap="round"/>
<path d="M51.9126 371.802L58.8923 371.812" stroke="#37271A" stroke-width="2" stroke-linecap="round"/>
<path d="M52.334 362.977L59.3137 362.986" stroke="#37271A" stroke-width="2" stroke-linecap="round"/>
<path d="M50.2747 384.115L44.1673 364.087" stroke="#37271A" stroke-width="2" stroke-linecap="round"/>
<path d="M43.0117 373.668L49.6879 371.633" stroke="#37271A" stroke-width="2" stroke-linecap="round"/>
<path d="M40.8306 365.105L47.5068 363.07" stroke="#37271A" stroke-width="2" stroke-linecap="round"/>
<path d="M44.5147 386.727L32.0854 369.876" stroke="#37271A" stroke-width="2" stroke-linecap="round"/>
<path d="M34.1865 379.29L39.8035 375.148" stroke="#37271A" stroke-width="2" stroke-linecap="round"/>
<path d="M29.2754 371.946L34.8924 367.804" stroke="#37271A" stroke-width="2" stroke-linecap="round"/>
<path d="M40.9106 391.529L25.1465 377.747" stroke="#37271A" stroke-width="2" stroke-linecap="round"/>
<path d="M29.2256 386.493L33.8195 381.239" stroke="#37271A" stroke-width="2" stroke-linecap="round"/>
<path d="M22.8511 380.373L27.445 375.119" stroke="#37271A" stroke-width="2" stroke-linecap="round"/>
<path d="M84.376 362.028L79.4056 366.626" stroke="#37271A" stroke-width="2" stroke-linecap="round"/>
<path d="M79.5908 361.842L84.1892 366.812" stroke="#37271A" stroke-width="2" stroke-linecap="round"/>
<path d="M74.4136 357.935L68.3706 354.879" stroke="#37271A" stroke-width="2" stroke-linecap="round"/>
<path d="M72.9194 353.39L69.8644 359.432" stroke="#37271A" stroke-width="2" stroke-linecap="round"/>
<path d="M61.3389 355.325L54.7053 353.966" stroke="#37271A" stroke-width="2" stroke-linecap="round"/>
<path d="M58.6997 351.328L57.3412 357.961" stroke="#37271A" stroke-width="2" stroke-linecap="round"/>
<path d="M44.958 354.354L38.4157 356.099" stroke="#37271A" stroke-width="2" stroke-linecap="round"/>
<path d="M40.814 351.953L42.5598 358.495" stroke="#37271A" stroke-width="2" stroke-linecap="round"/>
<path d="M35.2305 359.132L28.6881 360.877" stroke="#37271A" stroke-width="2" stroke-linecap="round"/>
<path d="M31.0864 356.733L32.8323 363.275" stroke="#37271A" stroke-width="2" stroke-linecap="round"/>
<path d="M26.3291 366.17L19.7868 367.915" stroke="#37271A" stroke-width="2" stroke-linecap="round"/>
<path d="M22.1841 363.774L23.9299 370.317" stroke="#37271A" stroke-width="2" stroke-linecap="round"/>
<path d="M14.6239 366.162C30.1594 343.102 62.9107 336.525 88.8662 358.827" stroke="#37271A" stroke-width="2" stroke-linecap="round"/>
<path d="M124.805 97.2442L122.896 86.0404M108.728 93.8868C109.365 97.6209 134.074 94.8696 132.703 89.9348C131.331 85 108.092 90.1527 108.728 93.8868Z" stroke="#37271A" stroke-width="2" stroke-linecap="round"/>
<path d="M111.771 77.1229L100.483 78.4447M107.581 93.0025C111.343 92.5621 109.882 67.7425 104.883 68.8542C99.8836 69.9659 103.819 93.4429 107.581 93.0025Z" stroke="#37271A" stroke-width="2" stroke-linecap="round"/>
<path d="M122.855 80.1675C122.181 79.6974 121.727 79.1342 121.509 78.6484C121.282 78.1415 121.372 77.8927 121.426 77.816C121.479 77.7393 121.682 77.5691 122.236 77.6074C122.767 77.6441 123.452 77.8765 124.126 78.3466C124.799 78.8166 125.253 79.3799 125.471 79.8657C125.698 80.3727 125.608 80.6214 125.554 80.6981C125.501 80.7748 125.298 80.945 124.744 80.9067C124.213 80.8699 123.528 80.6375 122.855 80.1675Z" stroke="#37271A" stroke-width="2"/>
<path d="M114.112 73.9722C113.439 73.5021 112.984 72.9388 112.767 72.4531C112.54 71.9462 112.63 71.6974 112.683 71.6206C112.737 71.544 112.939 71.3738 113.493 71.4121C114.024 71.4488 114.71 71.6812 115.383 72.1512C116.056 72.6213 116.511 73.1846 116.728 73.6704C116.955 74.1774 116.865 74.4261 116.812 74.5028C116.758 74.5795 116.556 74.7497 116.002 74.7114C115.471 74.6746 114.785 74.4422 114.112 73.9722Z" stroke="#37271A" stroke-width="2"/>
<path d="M131.436 80.8146L151.966 76.7044" stroke="#37271A" stroke-width="2" stroke-linecap="round"/>
<path d="M142.544 74.6152L143.915 81.4591" stroke="#37271A" stroke-width="2" stroke-linecap="round"/>
<path d="M151.28 73.2832L152.65 80.1271" stroke="#37271A" stroke-width="2" stroke-linecap="round"/>
<path d="M129.203 75.5256L148.051 66.4076" stroke="#37271A" stroke-width="2" stroke-linecap="round"/>
<path d="M138.405 66.7422L141.445 73.0254" stroke="#37271A" stroke-width="2" stroke-linecap="round"/>
<path d="M146.531 63.2666L149.571 69.5498" stroke="#37271A" stroke-width="2" stroke-linecap="round"/>
<path d="M126.569 71.0594L139.912 54.9244" stroke="#37271A" stroke-width="2" stroke-linecap="round"/>
<path d="M131.285 59.2393L136.663 63.6878" stroke="#37271A" stroke-width="2" stroke-linecap="round"/>
<path d="M137.226 52.6992L142.604 57.1478" stroke="#37271A" stroke-width="2" stroke-linecap="round"/>
<path d="M122.187 67.6968L130.218 48.3602" stroke="#37271A" stroke-width="2" stroke-linecap="round"/>
<path d="M123.231 55.0156L129.676 57.6935" stroke="#37271A" stroke-width="2" stroke-linecap="round"/>
<path d="M126.997 47.0225L133.442 49.7003" stroke="#37271A" stroke-width="2" stroke-linecap="round"/>
<path d="M116.082 66.0459L117.215 45.1377" stroke="#37271A" stroke-width="2" stroke-linecap="round"/>
<path d="M112.846 53.7373L119.815 54.1155" stroke="#37271A" stroke-width="2" stroke-linecap="round"/>
<path d="M113.73 44.9463L120.699 45.3245" stroke="#37271A" stroke-width="2" stroke-linecap="round"/>
<path d="M110.245 67.458L106.853 46.7953" stroke="#37271A" stroke-width="2" stroke-linecap="round"/>
<path d="M104.436 56.1377L111.323 55.0074" stroke="#37271A" stroke-width="2" stroke-linecap="round"/>
<path d="M103.412 47.3604L110.299 46.2301" stroke="#37271A" stroke-width="2" stroke-linecap="round"/>
<path d="M162.548 72.3555L155.788 72.7399" stroke="#37271A" stroke-width="2" stroke-linecap="round"/>
<path d="M158.975 69.167L159.36 75.9274" stroke="#37271A" stroke-width="2" stroke-linecap="round"/>
<path d="M157.466 62.8584L154.748 56.6564" stroke="#37271A" stroke-width="2" stroke-linecap="round"/>
<path d="M159.206 58.4014L153.004 61.1189" stroke="#37271A" stroke-width="2" stroke-linecap="round"/>
<path d="M149.041 52.5254L144.788 47.2562" stroke="#37271A" stroke-width="2" stroke-linecap="round"/>
<path d="M149.548 47.7627L144.279 52.0155" stroke="#37271A" stroke-width="2" stroke-linecap="round"/>
<path d="M137.022 41.3535L130.864 38.5372" stroke="#37271A" stroke-width="2" stroke-linecap="round"/>
<path d="M135.352 36.8652L132.536 43.023" stroke="#37271A" stroke-width="2" stroke-linecap="round"/>
<path d="M126.477 38.8496L120.319 36.0333" stroke="#37271A" stroke-width="2" stroke-linecap="round"/>
<path d="M124.807 34.3633L121.991 40.5211" stroke="#37271A" stroke-width="2" stroke-linecap="round"/>
<path d="M115.132 38.6152L108.974 35.7989" stroke="#37271A" stroke-width="2" stroke-linecap="round"/>
<path d="M113.458 34.1299L110.643 40.2877" stroke="#37271A" stroke-width="2" stroke-linecap="round"/>
<path d="M106.108 31.1614C132.765 23.2562 162.216 39.0217 168.05 72.7413" stroke="#37271A" stroke-width="2" stroke-linecap="round"/>
</svg>
