<svg width="61" height="62" viewBox="0 0 61 62" fill="none" xmlns="http://www.w3.org/2000/svg">
<path d="M24.4923 11.3884C26.5456 5.09839 33.2913 1.66968 39.5592 3.73014C45.8271 5.7906 49.2437 12.56 47.1903 18.85" stroke="#37271A" stroke-width="3"/>
<path d="M46.577 42.6332C53.171 42.8056 58.6557 37.5815 58.8276 30.9649C58.9994 24.3482 53.7932 18.8446 47.1993 18.6722" stroke="#37271A" stroke-width="3"/>
<path d="M23.6459 49.5875C25.5251 55.9321 32.1741 59.5466 38.4969 57.6607C44.8197 55.7749 48.4219 49.1028 46.5427 42.7582" stroke="#37271A" stroke-width="3"/>
<path d="M24.4871 11.3677C19.3134 7.26185 11.8025 8.14215 7.71099 13.3339C3.61952 18.5256 4.49685 26.0628 9.67055 30.1687" stroke="#37271A" stroke-width="3"/>
<path d="M23.584 49.5593C18.2116 53.399 10.7545 52.1412 6.9282 46.75C3.10186 41.3587 4.35517 33.8756 9.72755 30.0359" stroke="#37271A" stroke-width="3"/>
<path d="M23.5862 49.7521L30.6911 30.1823M30.6911 30.1823H9.52734M30.6911 30.1823L47.3198 18.8046M30.6911 30.1823L46.7152 42.7737M30.6911 30.1823L24.4932 11.3711" stroke="#37271A" stroke-width="3"/>
<path d="M29.8606 14.0938L21.6641 17.0314" stroke="#37271A" stroke-width="3" stroke-linecap="round"/>
<path d="M13.9301 25.8456L13.7278 34.6395" stroke="#37271A" stroke-width="3" stroke-linecap="round"/>
<path d="M29.008 47.4944L21.1122 43.6704" stroke="#37271A" stroke-width="3" stroke-linecap="round"/>
<path d="M46.1266 36.426L40.7796 43.3966" stroke="#37271A" stroke-width="3" stroke-linecap="round"/>
<path d="M47.4345 23.7673L42.1526 16.7475" stroke="#37271A" stroke-width="3" stroke-linecap="round"/>
</svg>
