<svg width="33" height="34" viewBox="0 0 33 34" fill="none" xmlns="http://www.w3.org/2000/svg">
<path d="M25.5352 10.2005L24.5852 9.88822C25.5256 7.00796 23.9601 3.9128 21.0957 2.97134L21.406 2.02072L21.7164 1.07011C25.635 2.35805 27.7668 6.58726 26.4852 10.5127L25.5352 10.2005ZM21.406 2.02072L21.0957 2.97134C18.2312 2.02988 15.1439 3.59577 14.2035 6.47602L13.2535 6.16378L12.3035 5.85154C13.5851 1.9261 17.7978 -0.217828 21.7164 1.07011L21.406 2.02072Z" fill="#37271A"/>
<path d="M25.5397 10.0928L25.5137 11.0925C28.5265 11.1712 30.9107 13.6864 30.832 16.717L31.8317 16.7431L32.8313 16.7692C32.9385 12.6406 29.6888 9.20095 25.5657 9.09314L25.5397 10.0928ZM31.8317 16.7431L30.832 16.717C30.7533 19.7475 28.2417 22.1347 25.229 22.0559L25.203 23.0556L25.1771 24.0552C29.3001 24.163 32.7241 20.8978 32.8313 16.7692L31.8317 16.7431Z" fill="#37271A"/>
<path d="M25.1862 23.1327L24.2279 23.4185C25.0886 26.3239 23.4382 29.3745 20.5487 30.2362L20.8327 31.195L21.1168 32.1538C25.0697 30.975 27.3175 26.8064 26.1445 22.847L25.1862 23.1327ZM20.8327 31.195L20.5487 30.2362C17.6592 31.0978 14.616 29.4469 13.7553 26.5416L12.797 26.8274L11.8387 27.1131C13.0117 31.0726 17.1638 33.3326 21.1168 32.1538L20.8327 31.195Z" fill="#37271A"/>
<path d="M5.23289 16.3188L5.85193 15.5334C3.48568 13.6559 3.08355 10.2083 4.95596 7.83283L4.1726 7.21126L3.38924 6.5897C0.833938 9.83159 1.38123 14.5392 4.61386 17.1041L5.23289 16.3188ZM4.1726 7.21126L4.95596 7.83283C6.82837 5.45731 10.2647 5.05541 12.6309 6.93293L13.25 6.14756L13.869 5.3622C10.6364 2.79724 5.94453 3.34781 3.38924 6.5897L4.1726 7.21126Z" fill="#37271A"/>
<path d="M5.26348 16.2427L5.84233 17.0581C3.38557 18.8137 2.81109 22.2364 4.5624 24.7035L3.74878 25.2849L2.93516 25.8663C0.545678 22.5002 1.32751 17.8262 4.68463 15.4273L5.26348 16.2427ZM3.74878 25.2849L4.5624 24.7035C6.3137 27.1706 9.72544 27.7449 12.1822 25.9893L12.761 26.8047L13.3399 27.6202C9.98276 30.0191 5.32465 29.2325 2.93516 25.8663L3.74878 25.2849Z" fill="#37271A"/>
<path d="M12.7633 26.9162L16.6078 16.3291M16.6078 16.3291H5.15625M16.6078 16.3291L25.6054 10.1738M16.6078 16.3291L25.2782 23.141M16.6078 16.3291L13.2541 6.15234" stroke="#37271A" stroke-width="2"/>
<path d="M16.4904 7.62109L11.7227 9.21036" stroke="#37271A" stroke-width="2" stroke-linecap="round"/>
<path d="M8.53833 14.0091C8.55097 13.4568 8.11379 12.9984 7.56185 12.9852C7.00992 12.9721 6.55225 13.4091 6.53961 13.9615L7.53897 13.9853L8.53833 14.0091ZM6.43073 18.7196C6.41809 19.2719 6.85528 19.7303 7.40721 19.7435C7.95914 19.7566 8.41682 19.3195 8.42945 18.7672L7.43009 18.7434L6.43073 18.7196ZM7.53897 13.9853L6.53961 13.9615L6.43073 18.7196L7.43009 18.7434L8.42945 18.7672L8.53833 14.0091L7.53897 13.9853Z" fill="#37271A"/>
<path d="M15.2615 26.5929C15.758 26.8334 16.3548 26.6244 16.5945 26.1262C16.8341 25.628 16.6258 25.0292 16.1292 24.7887L15.6953 25.6908L15.2615 26.5929ZM11.8568 22.72C11.3602 22.4795 10.7634 22.6885 10.5238 23.1867C10.2842 23.6849 10.4925 24.2837 10.9891 24.5241L11.423 23.6221L11.8568 22.72ZM15.6953 25.6908L16.1292 24.7887L11.8568 22.72L11.423 23.6221L10.9891 24.5241L15.2615 26.5929L15.6953 25.6908Z" fill="#37271A"/>
<path d="M25.7492 20.3136C26.0857 19.875 26.0042 19.2463 25.5673 18.9093C25.1303 18.5724 24.5033 18.6548 24.1668 19.0934L24.958 19.7035L25.7492 20.3136ZM21.2736 22.8644C20.9371 23.303 21.0186 23.9317 21.4555 24.2686C21.8925 24.6056 22.5195 24.5232 22.856 24.0846L22.0648 23.4745L21.2736 22.8644ZM24.958 19.7035L24.1668 19.0934L21.2736 22.8644L22.0648 23.4745L22.856 24.0846L25.7492 20.3136L24.958 19.7035Z" fill="#37271A"/>
<path d="M24.8762 13.4629C25.2087 13.9037 25.8356 13.9913 26.2765 13.6584C26.7173 13.3255 26.8051 12.6983 26.4726 12.2575L25.6744 12.8602L24.8762 13.4629ZM23.608 8.45982C23.2755 8.01898 22.6486 7.93145 22.2077 8.26432C21.7669 8.59718 21.6791 9.22438 22.0116 9.66522L22.8098 9.06252L23.608 8.45982ZM25.6744 12.8602L26.4726 12.2575L23.608 8.45982L22.8098 9.06252L22.0116 9.66522L24.8762 13.4629L25.6744 12.8602Z" fill="#37271A"/>
</svg>
