<svg width="456" height="396" viewBox="0 0 456 396" fill="none" xmlns="http://www.w3.org/2000/svg">
<path d="M163.141 285.067L154.399 277.805M148.752 292.983C151.666 295.404 168.632 277.231 164.379 274.377C160.126 271.524 145.838 290.563 148.752 292.983Z" stroke="#37271A" stroke-width="2" stroke-linecap="round"/>
<path d="M140.149 278.278L132.441 286.629M147.305 293.06C149.875 290.277 132.61 272.386 129.538 276.484C126.467 280.583 144.736 295.843 147.305 293.06Z" stroke="#37271A" stroke-width="2" stroke-linecap="round"/>
<path d="M150.545 273.374C149.728 273.455 149.016 273.323 148.535 273.096C148.033 272.859 147.939 272.612 147.93 272.519C147.92 272.426 147.963 272.164 148.409 271.833C148.836 271.515 149.507 271.245 150.325 271.164C151.142 271.082 151.853 271.214 152.335 271.441C152.837 271.678 152.931 271.926 152.94 272.019C152.949 272.112 152.906 272.373 152.461 272.705C152.034 273.022 151.362 273.292 150.545 273.374Z" stroke="#37271A" stroke-width="2"/>
<path d="M139.875 274.362C139.058 274.443 138.346 274.312 137.865 274.084C137.363 273.847 137.269 273.6 137.26 273.507C137.25 273.414 137.293 273.153 137.739 272.821C138.166 272.503 138.837 272.234 139.655 272.152C140.472 272.071 141.183 272.202 141.665 272.43C142.167 272.667 142.261 272.914 142.27 273.007C142.279 273.1 142.236 273.361 141.791 273.693C141.364 274.011 140.692 274.28 139.875 274.362Z" stroke="#37271A" stroke-width="2"/>
<path d="M157.481 268.279L170.39 251.794" stroke="#37271A" stroke-width="2" stroke-linecap="round"/>
<path d="M161.877 256.341L167.373 260.644" stroke="#37271A" stroke-width="2" stroke-linecap="round"/>
<path d="M167.642 249.645L173.137 253.948" stroke="#37271A" stroke-width="2" stroke-linecap="round"/>
<path d="M152.343 265.717L160.715 246.526" stroke="#37271A" stroke-width="2" stroke-linecap="round"/>
<path d="M153.611 253.058L160.008 255.849" stroke="#37271A" stroke-width="2" stroke-linecap="round"/>
<path d="M157.517 245.131L163.915 247.922" stroke="#37271A" stroke-width="2" stroke-linecap="round"/>
<path d="M147.436 264.042L147.062 243.108" stroke="#37271A" stroke-width="2" stroke-linecap="round"/>
<path d="M143.322 251.999L150.3 251.875" stroke="#37271A" stroke-width="2" stroke-linecap="round"/>
<path d="M143.574 243.167L150.552 243.043" stroke="#37271A" stroke-width="2" stroke-linecap="round"/>
<path d="M141.92 264.341L135.43 244.434" stroke="#37271A" stroke-width="2" stroke-linecap="round"/>
<path d="M134.458 254.035L141.094 251.872" stroke="#37271A" stroke-width="2" stroke-linecap="round"/>
<path d="M132.113 245.517L138.749 243.354" stroke="#37271A" stroke-width="2" stroke-linecap="round"/>
<path d="M136.211 267.062L123.461 250.452" stroke="#37271A" stroke-width="2" stroke-linecap="round"/>
<path d="M125.742 259.825L131.279 255.576" stroke="#37271A" stroke-width="2" stroke-linecap="round"/>
<path d="M120.691 252.576L126.228 248.327" stroke="#37271A" stroke-width="2" stroke-linecap="round"/>
<path d="M132.7 271.933L116.675 258.456" stroke="#37271A" stroke-width="2" stroke-linecap="round"/>
<path d="M120.921 267.121L125.413 261.78" stroke="#37271A" stroke-width="2" stroke-linecap="round"/>
<path d="M114.43 261.125L118.923 255.784" stroke="#37271A" stroke-width="2" stroke-linecap="round"/>
<path d="M175.592 241.604L170.711 246.297" stroke="#37271A" stroke-width="2" stroke-linecap="round"/>
<path d="M170.804 241.51L175.497 246.391" stroke="#37271A" stroke-width="2" stroke-linecap="round"/>
<path d="M165.553 237.703L159.452 234.764" stroke="#37271A" stroke-width="2" stroke-linecap="round"/>
<path d="M163.972 233.188L161.033 239.287" stroke="#37271A" stroke-width="2" stroke-linecap="round"/>
<path d="M152.43 235.345L145.772 234.113" stroke="#37271A" stroke-width="2" stroke-linecap="round"/>
<path d="M149.715 231.398L148.484 238.056" stroke="#37271A" stroke-width="2" stroke-linecap="round"/>
<path d="M136.034 234.687L129.526 236.557" stroke="#37271A" stroke-width="2" stroke-linecap="round"/>
<path d="M131.845 232.366L133.716 238.874" stroke="#37271A" stroke-width="2" stroke-linecap="round"/>
<path d="M126.4 239.65L119.892 241.521" stroke="#37271A" stroke-width="2" stroke-linecap="round"/>
<path d="M122.211 237.332L124.082 243.839" stroke="#37271A" stroke-width="2" stroke-linecap="round"/>
<path d="M117.635 246.857L111.127 248.728" stroke="#37271A" stroke-width="2" stroke-linecap="round"/>
<path d="M113.444 244.542L115.315 251.049" stroke="#37271A" stroke-width="2" stroke-linecap="round"/>
<path d="M105.932 247.073C121.022 223.719 153.642 216.516 180.02 238.316" stroke="#37271A" stroke-width="2" stroke-linecap="round"/>
<path d="M118.025 294.897L106.695 294.001M110.829 309.66C114.605 309.958 117.995 285.329 112.875 285.448C107.754 285.568 107.053 309.361 110.829 309.66Z" stroke="#37271A" stroke-width="2" stroke-linecap="round"/>
<path d="M95.323 302.601L93.8373 313.868M109.691 310.556C110.186 306.801 85.7659 302.132 85.6181 307.251C85.4703 312.371 109.196 314.311 109.691 310.556Z" stroke="#37271A" stroke-width="2" stroke-linecap="round"/>
<path d="M100.991 292.601C100.371 293.139 99.7131 293.442 99.1888 293.533C98.6417 293.629 98.4226 293.481 98.3613 293.41C98.3001 293.34 98.1847 293.102 98.3577 292.574C98.5235 292.068 98.9168 291.46 99.5376 290.923C100.158 290.385 100.816 290.083 101.34 289.991C101.887 289.895 102.106 290.043 102.168 290.114C102.229 290.185 102.344 290.423 102.171 290.951C102.005 291.456 101.612 292.064 100.991 292.601Z" stroke="#37271A" stroke-width="2"/>
<path d="M92.842 299.559C92.2212 300.096 91.5637 300.399 91.0394 300.49C90.4923 300.586 90.2732 300.438 90.2119 300.367C90.1507 300.297 90.0353 300.059 90.2083 299.531C90.3741 299.025 90.7674 298.417 91.3882 297.88C92.009 297.342 92.6665 297.04 93.1908 296.948C93.7379 296.852 93.957 297 94.0183 297.071C94.0795 297.142 94.1948 297.38 94.0219 297.908C93.8561 298.413 93.4627 299.021 92.842 299.559Z" stroke="#37271A" stroke-width="2"/>
<path d="M103.723 284.44L104.771 263.529" stroke="#37271A" stroke-width="2" stroke-linecap="round"/>
<path d="M100.435 272.151L107.406 272.5" stroke="#37271A" stroke-width="2" stroke-linecap="round"/>
<path d="M101.286 263.355L108.257 263.705" stroke="#37271A" stroke-width="2" stroke-linecap="round"/>
<path d="M98.0475 285.308L93.8281 264.8" stroke="#37271A" stroke-width="2" stroke-linecap="round"/>
<path d="M91.7871 274.233L98.6237 272.827" stroke="#37271A" stroke-width="2" stroke-linecap="round"/>
<path d="M90.4102 265.504L97.2468 264.097" stroke="#37271A" stroke-width="2" stroke-linecap="round"/>
<path d="M93.0719 286.768L80.7004 269.876" stroke="#37271A" stroke-width="2" stroke-linecap="round"/>
<path d="M82.7686 279.298L88.3998 275.174" stroke="#37271A" stroke-width="2" stroke-linecap="round"/>
<path d="M77.8838 271.936L83.5151 267.812" stroke="#37271A" stroke-width="2" stroke-linecap="round"/>
<path d="M88.7372 290.191L71.9595 277.664" stroke="#37271A" stroke-width="2" stroke-linecap="round"/>
<path d="M76.6992 286.07L80.8754 280.478" stroke="#37271A" stroke-width="2" stroke-linecap="round"/>
<path d="M69.873 280.46L74.0492 274.868" stroke="#37271A" stroke-width="2" stroke-linecap="round"/>
<path d="M85.6401 295.705L65.6476 289.481" stroke="#37271A" stroke-width="2" stroke-linecap="round"/>
<path d="M72.9141 295.826L74.9892 289.162" stroke="#37271A" stroke-width="2" stroke-linecap="round"/>
<path d="M64.6084 292.813L66.6835 286.15" stroke="#37271A" stroke-width="2" stroke-linecap="round"/>
<path d="M85.5791 301.71L64.7154 299.933" stroke="#37271A" stroke-width="2" stroke-linecap="round"/>
<path d="M73.1802 304.567L73.7727 297.613" stroke="#37271A" stroke-width="2" stroke-linecap="round"/>
<path d="M64.4194 303.408L65.012 296.454" stroke="#37271A" stroke-width="2" stroke-linecap="round"/>
<path d="M103.149 252.204L101.864 258.852" stroke="#37271A" stroke-width="2" stroke-linecap="round"/>
<path d="M99.1816 254.886L105.83 256.17" stroke="#37271A" stroke-width="2" stroke-linecap="round"/>
<path d="M92.6958 254.802L86.0168 255.916" stroke="#37271A" stroke-width="2" stroke-linecap="round"/>
<path d="M88.8013 252.023L89.9157 258.702" stroke="#37271A" stroke-width="2" stroke-linecap="round"/>
<path d="M80.6133 260.438L74.4623 263.27" stroke="#37271A" stroke-width="2" stroke-linecap="round"/>
<path d="M76.1206 258.778L78.952 264.929" stroke="#37271A" stroke-width="2" stroke-linecap="round"/>
<path d="M66.835 269.351L62.595 274.63" stroke="#37271A" stroke-width="2" stroke-linecap="round"/>
<path d="M62.0742 269.869L67.3538 274.109" stroke="#37271A" stroke-width="2" stroke-linecap="round"/>
<path d="M61.8232 278.96L57.5833 284.239" stroke="#37271A" stroke-width="2" stroke-linecap="round"/>
<path d="M57.0635 279.479L62.3431 283.719" stroke="#37271A" stroke-width="2" stroke-linecap="round"/>
<path d="M58.8149 289.901L54.575 295.181" stroke="#37271A" stroke-width="2" stroke-linecap="round"/>
<path d="M54.0557 290.425L59.3353 294.664" stroke="#37271A" stroke-width="2" stroke-linecap="round"/>
<path d="M49.3758 296.824C48.2467 269.041 70.7509 244.354 104.872 246.965" stroke="#37271A" stroke-width="2" stroke-linecap="round"/>
<path d="M87.2741 329.675L77.4011 335.305M89.6237 345.929C92.9143 344.053 81.8696 321.779 77.7025 324.757C73.5354 327.735 86.3331 347.806 89.6237 345.929Z" stroke="#37271A" stroke-width="2" stroke-linecap="round"/>
<path d="M72.832 348.811L77.9385 358.964M89.1865 347.311C87.4847 343.927 64.665 353.797 67.4212 358.113C70.1774 362.43 90.8883 350.695 89.1865 347.311Z" stroke="#37271A" stroke-width="2" stroke-linecap="round"/>
<path d="M71.8979 337.354C71.6868 338.148 71.3131 338.768 70.9312 339.138C70.5326 339.525 70.268 339.526 70.1776 339.502C70.0873 339.478 69.858 339.346 69.7043 338.812C69.557 338.301 69.5407 337.577 69.7518 336.783C69.9629 335.99 70.3366 335.37 70.7185 334.999C71.1172 334.612 71.3817 334.612 71.472 334.636C71.5624 334.66 71.7917 334.792 71.9454 335.326C72.0926 335.837 72.109 336.561 71.8979 337.354Z" stroke="#37271A" stroke-width="2"/>
<path d="M69.0702 347.69C68.8591 348.484 68.4855 349.104 68.1035 349.474C67.705 349.861 67.4404 349.862 67.35 349.838C67.2597 349.814 67.0304 349.682 66.8767 349.148C66.7294 348.637 66.7131 347.913 66.9242 347.119C67.1353 346.326 67.5089 345.706 67.8909 345.335C68.2895 344.948 68.5541 344.948 68.6444 344.972C68.7348 344.996 68.9641 345.128 69.1178 345.662C69.265 346.173 69.2813 346.897 69.0702 347.69Z" stroke="#37271A" stroke-width="2"/>
<path d="M69.5678 329.069L58.677 311.187" stroke="#37271A" stroke-width="2" stroke-linecap="round"/>
<path d="M59.939 320.755L65.9 317.124" stroke="#37271A" stroke-width="2" stroke-linecap="round"/>
<path d="M55.6973 313.003L61.6583 309.372" stroke="#37271A" stroke-width="2" stroke-linecap="round"/>
<path d="M65.3624 332.978L50.3425 318.391" stroke="#37271A" stroke-width="2" stroke-linecap="round"/>
<path d="M53.9585 327.339L58.8213 322.332" stroke="#37271A" stroke-width="2" stroke-linecap="round"/>
<path d="M47.9116 320.895L52.7744 315.887" stroke="#37271A" stroke-width="2" stroke-linecap="round"/>
<path d="M62.068 336.983L42.3397 329.97" stroke="#37271A" stroke-width="2" stroke-linecap="round"/>
<path d="M49.3472 336.598L51.6855 330.021" stroke="#37271A" stroke-width="2" stroke-linecap="round"/>
<path d="M41.1685 333.256L43.5068 326.68" stroke="#37271A" stroke-width="2" stroke-linecap="round"/>
<path d="M60.4086 342.25L39.4908 341.324" stroke="#37271A" stroke-width="2" stroke-linecap="round"/>
<path d="M48.1367 345.611L48.446 338.639" stroke="#37271A" stroke-width="2" stroke-linecap="round"/>
<path d="M39.3374 344.81L39.6467 337.837" stroke="#37271A" stroke-width="2" stroke-linecap="round"/>
<path d="M60.9477 348.551L40.9151 354.645" stroke="#37271A" stroke-width="2" stroke-linecap="round"/>
<path d="M50.4912 355.806L48.4606 349.128" stroke="#37271A" stroke-width="2" stroke-linecap="round"/>
<path d="M41.9287 357.984L39.8981 351.307" stroke="#37271A" stroke-width="2" stroke-linecap="round"/>
<path d="M64.2731 353.553L46.0206 363.814" stroke="#37271A" stroke-width="2" stroke-linecap="round"/>
<path d="M55.626 362.887L52.2061 356.803" stroke="#37271A" stroke-width="2" stroke-linecap="round"/>
<path d="M47.73 366.854L44.3101 360.77" stroke="#37271A" stroke-width="2" stroke-linecap="round"/>
<path d="M50.9678 302.734L53.6434 308.954" stroke="#37271A" stroke-width="2" stroke-linecap="round"/>
<path d="M49.1948 307.183L55.4149 304.506" stroke="#37271A" stroke-width="2" stroke-linecap="round"/>
<path d="M43.7847 310.759L38.888 315.436" stroke="#37271A" stroke-width="2" stroke-linecap="round"/>
<path d="M39.0015 310.651L43.678 315.548" stroke="#37271A" stroke-width="2" stroke-linecap="round"/>
<path d="M36.9614 322.215L33.4668 328.015" stroke="#37271A" stroke-width="2" stroke-linecap="round"/>
<path d="M32.313 323.368L38.1125 326.862" stroke="#37271A" stroke-width="2" stroke-linecap="round"/>
<path d="M30.5796 337.332L30.0416 344.082" stroke="#37271A" stroke-width="2" stroke-linecap="round"/>
<path d="M26.9341 340.438L33.6838 340.975" stroke="#37271A" stroke-width="2" stroke-linecap="round"/>
<path d="M31.8379 348.096L31.2999 354.845" stroke="#37271A" stroke-width="2" stroke-linecap="round"/>
<path d="M28.1938 351.202L34.9435 351.739" stroke="#37271A" stroke-width="2" stroke-linecap="round"/>
<path d="M35.501 358.837L34.963 365.587" stroke="#37271A" stroke-width="2" stroke-linecap="round"/>
<path d="M31.8594 361.944L38.6091 362.482" stroke="#37271A" stroke-width="2" stroke-linecap="round"/>
<path d="M31.5877 369.868C15.0332 347.527 19.7628 314.459 49.4473 297.433" stroke="#37271A" stroke-width="2" stroke-linecap="round"/>
<path d="M293.298 169.048L304.659 168.731M298.88 153.603C295.094 153.708 294.348 178.559 299.426 177.894C304.505 177.23 302.667 153.497 298.88 153.603Z" stroke="#37271A" stroke-width="2" stroke-linecap="round"/>
<path d="M315.05 158.97L315.327 147.608M299.917 152.591C299.824 156.377 324.603 158.417 324.204 153.311C323.806 148.205 300.009 148.804 299.917 152.591Z" stroke="#37271A" stroke-width="2" stroke-linecap="round"/>
<path d="M310.479 169.516C311.039 168.915 311.661 168.545 312.172 168.398C312.706 168.244 312.94 168.368 313.008 168.432C313.077 168.496 313.217 168.72 313.101 169.263C312.99 169.784 312.664 170.43 312.104 171.03C311.544 171.631 310.922 172.002 310.411 172.149C309.877 172.303 309.643 172.178 309.575 172.115C309.506 172.051 309.366 171.827 309.482 171.283C309.593 170.763 309.919 170.117 310.479 169.516Z" stroke="#37271A" stroke-width="2"/>
<path d="M317.841 161.73C318.401 161.129 319.023 160.759 319.534 160.611C320.068 160.458 320.302 160.582 320.37 160.646C320.438 160.709 320.578 160.934 320.463 161.477C320.352 161.998 320.025 162.644 319.465 163.244C318.905 163.845 318.284 164.216 317.772 164.363C317.239 164.516 317.005 164.392 316.937 164.329C316.868 164.265 316.728 164.04 316.844 163.497C316.955 162.977 317.281 162.331 317.841 161.73Z" stroke="#37271A" stroke-width="2"/>
<path d="M308.633 177.922L309.819 198.826" stroke="#37271A" stroke-width="2" stroke-linecap="round"/>
<path d="M313.212 189.791L306.243 190.187" stroke="#37271A" stroke-width="2" stroke-linecap="round"/>
<path d="M313.303 198.627L306.335 199.023" stroke="#37271A" stroke-width="2" stroke-linecap="round"/>
<path d="M314.184 176.454L320.565 196.396" stroke="#37271A" stroke-width="2" stroke-linecap="round"/>
<path d="M321.588 186.799L314.941 188.926" stroke="#37271A" stroke-width="2" stroke-linecap="round"/>
<path d="M323.888 195.332L317.24 197.459" stroke="#37271A" stroke-width="2" stroke-linecap="round"/>
<path d="M318.976 174.473L333.076 189.951" stroke="#37271A" stroke-width="2" stroke-linecap="round"/>
<path d="M330.016 180.804L324.856 185.504" stroke="#37271A" stroke-width="2" stroke-linecap="round"/>
<path d="M335.657 187.604L330.497 192.304" stroke="#37271A" stroke-width="2" stroke-linecap="round"/>
<path d="M322.921 170.607L340.937 181.275" stroke="#37271A" stroke-width="2" stroke-linecap="round"/>
<path d="M335.329 173.422L331.773 179.427" stroke="#37271A" stroke-width="2" stroke-linecap="round"/>
<path d="M342.714 178.272L339.158 184.278" stroke="#37271A" stroke-width="2" stroke-linecap="round"/>
<path d="M325.412 164.796L345.954 168.854" stroke="#37271A" stroke-width="2" stroke-linecap="round"/>
<path d="M338.053 163.319L336.7 170.166" stroke="#37271A" stroke-width="2" stroke-linecap="round"/>
<path d="M346.633 165.43L345.28 172.277" stroke="#37271A" stroke-width="2" stroke-linecap="round"/>
<path d="M324.833 158.819L345.768 158.362" stroke="#37271A" stroke-width="2" stroke-linecap="round"/>
<path d="M336.857 154.656L337.009 161.634" stroke="#37271A" stroke-width="2" stroke-linecap="round"/>
<path d="M345.692 154.875L345.844 161.853" stroke="#37271A" stroke-width="2" stroke-linecap="round"/>
<path d="M312.639 209.914L313.208 203.167" stroke="#37271A" stroke-width="2" stroke-linecap="round"/>
<path d="M316.298 206.825L309.55 206.257" stroke="#37271A" stroke-width="2" stroke-linecap="round"/>
<path d="M322.755 206.216L329.278 204.396" stroke="#37271A" stroke-width="2" stroke-linecap="round"/>
<path d="M326.924 208.564L325.104 202.043" stroke="#37271A" stroke-width="2" stroke-linecap="round"/>
<path d="M334.169 199.325L339.983 195.855" stroke="#37271A" stroke-width="2" stroke-linecap="round"/>
<path d="M338.813 200.496L335.343 194.682" stroke="#37271A" stroke-width="2" stroke-linecap="round"/>
<path d="M346.918 188.996L350.571 183.295" stroke="#37271A" stroke-width="2" stroke-linecap="round"/>
<path d="M351.596 187.973L345.895 184.32" stroke="#37271A" stroke-width="2" stroke-linecap="round"/>
<path d="M350.877 178.907L354.531 173.206" stroke="#37271A" stroke-width="2" stroke-linecap="round"/>
<path d="M355.555 177.883L349.854 174.23" stroke="#37271A" stroke-width="2" stroke-linecap="round"/>
<path d="M352.704 167.706L356.357 162.005" stroke="#37271A" stroke-width="2" stroke-linecap="round"/>
<path d="M357.38 166.68L351.679 163.027" stroke="#37271A" stroke-width="2" stroke-linecap="round"/>
<path d="M327.165 122.818L337.875 119.016M327.716 106.404C324.146 107.671 331.094 131.543 335.72 129.346C340.347 127.149 331.285 105.137 327.716 106.404Z" stroke="#37271A" stroke-width="2" stroke-linecap="round"/>
<path d="M344.754 106.527L341.516 95.6327M328.391 105.121C329.47 108.752 353.671 103.058 351.719 98.323C349.766 93.5882 327.312 101.491 328.391 105.121Z" stroke="#37271A" stroke-width="2" stroke-linecap="round"/>
<path d="M343.653 117.968C344.001 117.224 344.478 116.68 344.919 116.382C345.379 116.071 345.64 116.117 345.725 116.157C345.809 116.197 346.012 116.367 346.069 116.919C346.124 117.449 346.012 118.164 345.665 118.908C345.317 119.652 344.84 120.196 344.399 120.494C343.938 120.804 343.678 120.758 343.593 120.719C343.508 120.679 343.306 120.509 343.249 119.956C343.194 119.427 343.305 118.712 343.653 117.968Z" stroke="#37271A" stroke-width="2"/>
<path d="M348.258 108.292C348.606 107.548 349.083 107.004 349.524 106.706C349.984 106.396 350.245 106.442 350.33 106.481C350.414 106.521 350.617 106.691 350.674 107.244C350.729 107.773 350.617 108.488 350.27 109.232C349.922 109.976 349.445 110.52 349.004 110.818C348.543 111.129 348.283 111.083 348.198 111.043C348.113 111.003 347.911 110.833 347.854 110.281C347.799 109.751 347.91 109.036 348.258 108.292Z" stroke="#37271A" stroke-width="2"/>
<path d="M344.491 126.535L352.061 146.057" stroke="#37271A" stroke-width="2" stroke-linecap="round"/>
<path d="M352.504 136.416L345.997 138.94" stroke="#37271A" stroke-width="2" stroke-linecap="round"/>
<path d="M355.313 144.795L348.806 147.319" stroke="#37271A" stroke-width="2" stroke-linecap="round"/>
<path d="M349.319 123.427L361.534 140.432" stroke="#37271A" stroke-width="2" stroke-linecap="round"/>
<path d="M359.552 130.986L353.883 135.058" stroke="#37271A" stroke-width="2" stroke-linecap="round"/>
<path d="M364.368 138.396L358.699 142.468" stroke="#37271A" stroke-width="2" stroke-linecap="round"/>
<path d="M353.266 120.067L371.45 130.447" stroke="#37271A" stroke-width="2" stroke-linecap="round"/>
<path d="M365.719 122.686L362.259 128.747" stroke="#37271A" stroke-width="2" stroke-linecap="round"/>
<path d="M373.183 127.417L369.723 133.478" stroke="#37271A" stroke-width="2" stroke-linecap="round"/>
<path d="M355.828 115.175L376.256 119.772" stroke="#37271A" stroke-width="2" stroke-linecap="round"/>
<path d="M368.5 114.028L366.967 120.837" stroke="#37271A" stroke-width="2" stroke-linecap="round"/>
<path d="M377.022 116.368L375.489 123.177" stroke="#37271A" stroke-width="2" stroke-linecap="round"/>
<path d="M356.406 108.88L377.199 106.411" stroke="#37271A" stroke-width="2" stroke-linecap="round"/>
<path d="M367.977 103.58L368.799 110.511" stroke="#37271A" stroke-width="2" stroke-linecap="round"/>
<path d="M376.79 102.944L377.612 109.875" stroke="#37271A" stroke-width="2" stroke-linecap="round"/>
<path d="M354.015 103.368L373.79 96.483" stroke="#37271A" stroke-width="2" stroke-linecap="round"/>
<path d="M364.171 95.7031L366.465 102.294" stroke="#37271A" stroke-width="2" stroke-linecap="round"/>
<path d="M372.644 93.1885L374.938 99.7797" stroke="#37271A" stroke-width="2" stroke-linecap="round"/>
<path d="M358.158 155.735L356.62 149.141" stroke="#37271A" stroke-width="2" stroke-linecap="round"/>
<path d="M360.686 151.669L354.092 153.207" stroke="#37271A" stroke-width="2" stroke-linecap="round"/>
<path d="M366.642 149.1L372.286 145.359" stroke="#37271A" stroke-width="2" stroke-linecap="round"/>
<path d="M371.333 150.049L367.592 144.405" stroke="#37271A" stroke-width="2" stroke-linecap="round"/>
<path d="M375.375 139.027L379.837 133.934" stroke="#37271A" stroke-width="2" stroke-linecap="round"/>
<path d="M380.154 138.712L375.061 134.251" stroke="#37271A" stroke-width="2" stroke-linecap="round"/>
<path d="M384.323 125.273L386.042 118.724" stroke="#37271A" stroke-width="2" stroke-linecap="round"/>
<path d="M388.458 122.858L381.909 121.14" stroke="#37271A" stroke-width="2" stroke-linecap="round"/>
<path d="M384.979 114.456L386.698 107.907" stroke="#37271A" stroke-width="2" stroke-linecap="round"/>
<path d="M389.114 112.041L382.565 110.323" stroke="#37271A" stroke-width="2" stroke-linecap="round"/>
<path d="M383.269 103.234L384.987 96.685" stroke="#37271A" stroke-width="2" stroke-linecap="round"/>
<path d="M387.401 100.816L380.851 99.0982" stroke="#37271A" stroke-width="2" stroke-linecap="round"/>
<path d="M271.532 184.611L268.891 195.665M255.27 186.905C256.15 183.221 280.625 187.589 278.933 192.423C277.24 197.257 254.39 190.59 255.27 186.905Z" stroke="#37271A" stroke-width="2" stroke-linecap="round"/>
<path d="M257.205 203.833L246.028 201.773M254.067 187.713C257.792 188.399 254.704 213.069 249.789 211.632C244.873 210.194 250.342 187.026 254.067 187.713Z" stroke="#37271A" stroke-width="2" stroke-linecap="round"/>
<path d="M268.465 201.523C267.762 201.948 267.272 202.48 267.023 202.951C266.763 203.442 266.836 203.696 266.885 203.776C266.933 203.856 267.124 204.039 267.679 204.037C268.212 204.035 268.911 203.848 269.614 203.424C270.316 202.999 270.807 202.467 271.056 201.996C271.316 201.505 271.242 201.251 271.194 201.171C271.145 201.091 270.955 200.908 270.399 200.91C269.867 200.911 269.168 201.098 268.465 201.523Z" stroke="#37271A" stroke-width="2"/>
<path d="M259.334 207.132C258.631 207.556 258.141 208.089 257.892 208.559C257.632 209.05 257.706 209.304 257.754 209.384C257.802 209.464 257.993 209.647 258.549 209.646C259.081 209.644 259.78 209.457 260.483 209.032C261.186 208.607 261.676 208.075 261.925 207.605C262.185 207.114 262.111 206.859 262.063 206.779C262.015 206.699 261.824 206.516 261.268 206.518C260.736 206.52 260.037 206.707 259.334 207.132Z" stroke="#37271A" stroke-width="2"/>
<path d="M277.071 201.444L297.287 206.894" stroke="#37271A" stroke-width="2" stroke-linecap="round"/>
<path d="M287.75 208.361L289.567 201.622" stroke="#37271A" stroke-width="2" stroke-linecap="round"/>
<path d="M296.379 210.262L298.196 203.523" stroke="#37271A" stroke-width="2" stroke-linecap="round"/>
<path d="M274.496 206.575L292.704 216.911" stroke="#37271A" stroke-width="2" stroke-linecap="round"/>
<path d="M283.101 215.944L286.547 209.874" stroke="#37271A" stroke-width="2" stroke-linecap="round"/>
<path d="M290.98 219.945L294.426 213.875" stroke="#37271A" stroke-width="2" stroke-linecap="round"/>
<path d="M271.573 210.86L283.828 227.836" stroke="#37271A" stroke-width="2" stroke-linecap="round"/>
<path d="M275.501 222.964L281.16 218.878" stroke="#37271A" stroke-width="2" stroke-linecap="round"/>
<path d="M281 229.881L286.659 225.795" stroke="#37271A" stroke-width="2" stroke-linecap="round"/>
<path d="M266.98 213.926L273.725 233.749" stroke="#37271A" stroke-width="2" stroke-linecap="round"/>
<path d="M267.188 226.648L273.795 224.4" stroke="#37271A" stroke-width="2" stroke-linecap="round"/>
<path d="M270.422 234.873L277.029 232.624" stroke="#37271A" stroke-width="2" stroke-linecap="round"/>
<path d="M260.784 215.173L260.541 236.111" stroke="#37271A" stroke-width="2" stroke-linecap="round"/>
<path d="M256.745 227.241L263.724 227.322" stroke="#37271A" stroke-width="2" stroke-linecap="round"/>
<path d="M257.051 236.072L264.03 236.153" stroke="#37271A" stroke-width="2" stroke-linecap="round"/>
<path d="M255.05 213.38L250.308 233.775" stroke="#37271A" stroke-width="2" stroke-linecap="round"/>
<path d="M248.508 224.293L255.306 225.873" stroke="#37271A" stroke-width="2" stroke-linecap="round"/>
<path d="M246.91 232.985L253.708 234.565" stroke="#37271A" stroke-width="2" stroke-linecap="round"/>
<path d="M307.562 211.925L300.842 211.097" stroke="#37271A" stroke-width="2" stroke-linecap="round"/>
<path d="M303.789 214.872L304.617 208.152" stroke="#37271A" stroke-width="2" stroke-linecap="round"/>
<path d="M301.87 221.067L298.751 227.078" stroke="#37271A" stroke-width="2" stroke-linecap="round"/>
<path d="M303.313 225.631L297.303 222.512" stroke="#37271A" stroke-width="2" stroke-linecap="round"/>
<path d="M292.782 230.823L288.192 235.802" stroke="#37271A" stroke-width="2" stroke-linecap="round"/>
<path d="M292.976 235.61L287.998 231.021" stroke="#37271A" stroke-width="2" stroke-linecap="round"/>
<path d="M280.057 241.186L273.728 243.591" stroke="#37271A" stroke-width="2" stroke-linecap="round"/>
<path d="M278.096 245.555L275.69 239.225" stroke="#37271A" stroke-width="2" stroke-linecap="round"/>
<path d="M269.367 242.985L263.037 245.391" stroke="#37271A" stroke-width="2" stroke-linecap="round"/>
<path d="M267.407 247.353L265.001 241.023" stroke="#37271A" stroke-width="2" stroke-linecap="round"/>
<path d="M258.033 242.48L251.703 244.886" stroke="#37271A" stroke-width="2" stroke-linecap="round"/>
<path d="M256.068 246.847L253.663 240.517" stroke="#37271A" stroke-width="2" stroke-linecap="round"/>
<path d="M342.979 75.0183L351.035 67.001M336.458 59.9452C333.773 62.6171 350.261 81.2245 353.504 77.2599C356.746 73.2954 339.143 57.2732 336.458 59.9452Z" stroke="#37271A" stroke-width="2" stroke-linecap="round"/>
<path d="M351.911 52.7701L344.325 44.3072M336.519 58.4973C339.047 61.318 358.488 45.8208 354.699 42.3758C350.909 38.9308 333.991 55.6766 336.519 58.4973Z" stroke="#37271A" stroke-width="2" stroke-linecap="round"/>
<path d="M355.81 63.5811C355.806 62.76 356.005 62.0639 356.276 61.6062C356.56 61.1286 356.815 61.0587 356.909 61.0582C357.002 61.0578 357.258 61.1252 357.546 61.6001C357.822 62.0552 358.027 62.7493 358.031 63.5705C358.035 64.3916 357.836 65.0877 357.565 65.5454C357.281 66.0231 357.026 66.0929 356.933 66.0934C356.839 66.0938 356.583 66.0264 356.295 65.5515C356.019 65.0964 355.814 64.4023 355.81 63.5811Z" stroke="#37271A" stroke-width="2"/>
<path d="M355.834 52.8673C355.83 52.0461 356.029 51.3501 356.3 50.8923C356.584 50.4147 356.839 50.3448 356.933 50.3444C357.026 50.3439 357.282 50.4113 357.57 50.8862C357.846 51.3413 358.051 52.0354 358.055 52.8566C358.059 53.6778 357.86 54.3738 357.589 54.8315C357.305 55.3092 357.05 55.379 356.957 55.3795C356.863 55.3799 356.607 55.3125 356.319 54.8376C356.043 54.3825 355.838 53.6884 355.834 52.8673Z" stroke="#37271A" stroke-width="2"/>
<path d="M360.225 70.9683L375.416 85.3774" stroke="#37271A" stroke-width="2" stroke-linecap="round"/>
<path d="M371.695 76.4727L366.892 81.5369" stroke="#37271A" stroke-width="2" stroke-linecap="round"/>
<path d="M377.816 82.8447L373.013 87.9089" stroke="#37271A" stroke-width="2" stroke-linecap="round"/>
<path d="M363.262 66.0952L381.576 76.2434" stroke="#37271A" stroke-width="2" stroke-linecap="round"/>
<path d="M375.743 68.5518L372.36 74.6569" stroke="#37271A" stroke-width="2" stroke-linecap="round"/>
<path d="M383.266 73.1904L379.883 79.2956" stroke="#37271A" stroke-width="2" stroke-linecap="round"/>
<path d="M365.393 61.3694L386.269 62.9755" stroke="#37271A" stroke-width="2" stroke-linecap="round"/>
<path d="M377.769 58.4121L377.233 65.3712" stroke="#37271A" stroke-width="2" stroke-linecap="round"/>
<path d="M386.538 59.498L386.002 66.4571" stroke="#37271A" stroke-width="2" stroke-linecap="round"/>
<path d="M365.614 55.8507L386.046 51.2705" stroke="#37271A" stroke-width="2" stroke-linecap="round"/>
<path d="M376.579 49.3945L378.105 56.2051" stroke="#37271A" stroke-width="2" stroke-linecap="round"/>
<path d="M385.282 47.8652L386.808 54.6758" stroke="#37271A" stroke-width="2" stroke-linecap="round"/>
<path d="M363.448 49.911L381.188 38.7873" stroke="#37271A" stroke-width="2" stroke-linecap="round"/>
<path d="M371.641 40.1729L375.348 46.0861" stroke="#37271A" stroke-width="2" stroke-linecap="round"/>
<path d="M379.336 35.8301L383.043 41.7434" stroke="#37271A" stroke-width="2" stroke-linecap="round"/>
<path d="M358.929 45.9519L373.86 31.2717" stroke="#37271A" stroke-width="2" stroke-linecap="round"/>
<path d="M364.831 34.6797L369.723 39.6566" stroke="#37271A" stroke-width="2" stroke-linecap="round"/>
<path d="M371.415 28.7842L376.308 33.7611" stroke="#37271A" stroke-width="2" stroke-linecap="round"/>
<path d="M385.071 91.5166L380.861 86.2137" stroke="#37271A" stroke-width="2" stroke-linecap="round"/>
<path d="M385.617 86.7607L380.314 90.9714" stroke="#37271A" stroke-width="2" stroke-linecap="round"/>
<path d="M389.905 81.8936L393.407 76.0981" stroke="#37271A" stroke-width="2" stroke-linecap="round"/>
<path d="M394.55 80.7461L388.755 77.2442" stroke="#37271A" stroke-width="2" stroke-linecap="round"/>
<path d="M393.489 69.0537L395.344 62.5414" stroke="#37271A" stroke-width="2" stroke-linecap="round"/>
<path d="M397.674 66.7227L391.162 64.8679" stroke="#37271A" stroke-width="2" stroke-linecap="round"/>
<path d="M395.695 52.791L394.448 46.1357" stroke="#37271A" stroke-width="2" stroke-linecap="round"/>
<path d="M398.4 48.8408L391.745 50.0885" stroke="#37271A" stroke-width="2" stroke-linecap="round"/>
<path d="M391.662 42.7324L390.415 36.0771" stroke="#37271A" stroke-width="2" stroke-linecap="round"/>
<path d="M394.367 38.7812L387.712 40.029" stroke="#37271A" stroke-width="2" stroke-linecap="round"/>
<path d="M385.318 33.3223L384.071 26.667" stroke="#37271A" stroke-width="2" stroke-linecap="round"/>
<path d="M388.019 29.3701L381.363 30.6178" stroke="#37271A" stroke-width="2" stroke-linecap="round"/>
<path d="M225.684 205.417L218.57 214.28M210.003 200.537C212.374 197.583 232.63 211.998 229.033 215.644C225.436 219.29 207.632 203.491 210.003 200.537Z" stroke="#37271A" stroke-width="2" stroke-linecap="round"/>
<path d="M204.514 216.667L195.292 210.025M208.571 200.753C211.644 202.966 198.304 223.946 194.475 220.545C190.646 217.143 205.497 198.539 208.571 200.753Z" stroke="#37271A" stroke-width="2" stroke-linecap="round"/>
<path d="M215.679 219.393C214.862 219.477 214.191 219.748 213.765 220.067C213.32 220.4 213.278 220.661 213.287 220.754C213.297 220.847 213.391 221.094 213.894 221.33C214.376 221.556 215.088 221.686 215.905 221.603C216.721 221.519 217.392 221.248 217.819 220.929C218.263 220.596 218.306 220.335 218.296 220.242C218.287 220.149 218.192 219.902 217.69 219.666C217.208 219.44 216.496 219.31 215.679 219.393Z" stroke="#37271A" stroke-width="2"/>
<path d="M205.028 220.557C204.211 220.641 203.54 220.912 203.113 221.231C202.669 221.564 202.626 221.825 202.636 221.918C202.645 222.011 202.74 222.258 203.242 222.494C203.724 222.72 204.436 222.85 205.253 222.767C206.07 222.683 206.741 222.412 207.167 222.093C207.612 221.76 207.654 221.499 207.645 221.406C207.635 221.313 207.541 221.066 207.038 220.83C206.556 220.604 205.844 220.474 205.028 220.557Z" stroke="#37271A" stroke-width="2"/>
<path d="M223.494 223L239.438 236.571" stroke="#37271A" stroke-width="2" stroke-linecap="round"/>
<path d="M230.189 233.817L234.713 228.503" stroke="#37271A" stroke-width="2" stroke-linecap="round"/>
<path d="M237.175 239.228L241.7 233.913" stroke="#37271A" stroke-width="2" stroke-linecap="round"/>
<path d="M218.971 226.537L231.01 243.667" stroke="#37271A" stroke-width="2" stroke-linecap="round"/>
<path d="M222.742 238.687L228.452 234.673" stroke="#37271A" stroke-width="2" stroke-linecap="round"/>
<path d="M228.154 245.672L233.864 241.658" stroke="#37271A" stroke-width="2" stroke-linecap="round"/>
<path d="M214.498 229.16L218.316 249.747" stroke="#37271A" stroke-width="2" stroke-linecap="round"/>
<path d="M212.873 241.781L219.735 240.508" stroke="#37271A" stroke-width="2" stroke-linecap="round"/>
<path d="M214.885 250.386L221.748 249.112" stroke="#37271A" stroke-width="2" stroke-linecap="round"/>
<path d="M209.035 229.969L206.655 250.772" stroke="#37271A" stroke-width="2" stroke-linecap="round"/>
<path d="M203.783 241.558L210.717 242.35" stroke="#37271A" stroke-width="2" stroke-linecap="round"/>
<path d="M203.188 250.374L210.122 251.167" stroke="#37271A" stroke-width="2" stroke-linecap="round"/>
<path d="M202.9 228.445L193.727 247.268" stroke="#37271A" stroke-width="2" stroke-linecap="round"/>
<path d="M194.088 237.628L200.363 240.685" stroke="#37271A" stroke-width="2" stroke-linecap="round"/>
<path d="M190.588 245.74L196.862 248.797" stroke="#37271A" stroke-width="2" stroke-linecap="round"/>
<path d="M198.482 224.373L185.473 240.781" stroke="#37271A" stroke-width="2" stroke-linecap="round"/>
<path d="M187.902 231.442L193.372 235.778" stroke="#37271A" stroke-width="2" stroke-linecap="round"/>
<path d="M182.74 238.615L188.209 242.951" stroke="#37271A" stroke-width="2" stroke-linecap="round"/>
<path d="M246.57 245.515L240.85 241.893" stroke="#37271A" stroke-width="2" stroke-linecap="round"/>
<path d="M241.899 246.566L245.522 240.846" stroke="#37271A" stroke-width="2" stroke-linecap="round"/>
<path d="M237.517 251.347L232.127 255.446" stroke="#37271A" stroke-width="2" stroke-linecap="round"/>
<path d="M236.87 256.09L232.772 250.7" stroke="#37271A" stroke-width="2" stroke-linecap="round"/>
<path d="M225.13 256.277L218.852 258.815" stroke="#37271A" stroke-width="2" stroke-linecap="round"/>
<path d="M223.258 260.688L220.721 254.41" stroke="#37271A" stroke-width="2" stroke-linecap="round"/>
<path d="M209.195 260.202L202.445 259.67" stroke="#37271A" stroke-width="2" stroke-linecap="round"/>
<path d="M205.554 263.313L206.087 256.563" stroke="#37271A" stroke-width="2" stroke-linecap="round"/>
<path d="M198.767 257.262L192.016 256.73" stroke="#37271A" stroke-width="2" stroke-linecap="round"/>
<path d="M195.125 260.37L195.658 253.62" stroke="#37271A" stroke-width="2" stroke-linecap="round"/>
<path d="M188.733 251.955L181.983 251.423" stroke="#37271A" stroke-width="2" stroke-linecap="round"/>
<path d="M185.091 255.061L185.623 248.31" stroke="#37271A" stroke-width="2" stroke-linecap="round"/>
<path d="M388.593 18.4494C405.899 34.0022 415.806 67.7333 391.473 92.0454C403.734 115.975 390.692 150.93 361.352 159.818C365.435 187.322 345.689 214.266 311.485 215.306C306.617 241.718 273.004 263.648 247.106 248.816C231.509 279.985 188.733 272.329 175.051 256.06" stroke="#37271A" stroke-width="2" stroke-linecap="round"/>
</svg>
