<svg width="114" height="44" viewBox="0 0 114 44" fill="none" xmlns="http://www.w3.org/2000/svg">
<path d="M12.98 39.44C6.38 39.44 2.42 35.26 2.42 31.74C2.42 29.98 3.52 28.66 5.28 28.66C6.6 28.66 7.92 29.76 7.92 31.3C7.92 32.4 7.26 33.28 6.16 33.72C7.48 35.7 10.12 37.02 12.98 37.02C17.38 37.02 20.24 34.38 20.24 30.42C20.24 26.68 17.38 23.82 13.42 23.82H9.24V21.62H13.2C16.94 21.62 19.14 19.2 19.14 15.9C19.14 12.6 16.72 10.4 13.2 10.4C9.24 10.4 6.16 13.26 5.5 18.76H3.52V7.76H5.5L5.72 9.3C5.94 10.84 6.644 10.796 7.26 10.18C8.712 8.728 11 7.76 13.64 7.76C19.36 7.76 23.32 11.06 23.32 15.9C23.32 18.98 21.34 21.62 18.26 22.5C21.34 23.16 24.42 26.02 24.42 30.2C24.42 35.48 20.02 39.44 12.98 39.44Z" fill="#37271A"/>
<path d="M62.54 39V37.02H64.52C65.84 37.02 66.72 36.14 66.72 34.82V12.38C66.72 11.06 65.84 10.18 64.52 10.18H62.54V8.2H76.18C82.12 8.2 85.86 11.72 85.86 16.56C85.86 21.4 82.12 24.92 76.18 24.92H70.68V34.82C70.68 36.14 71.56 37.02 72.88 37.02H78.38V39H62.54ZM75.74 22.72C79.26 22.72 81.68 20.3 81.68 16.56C81.68 12.82 79.26 10.4 75.74 10.4H72.22C71.34 10.4 70.68 11.06 70.68 11.94V22.72H75.74ZM88.4828 39V37.02H89.1428C90.4628 37.02 91.3428 36.14 91.3428 34.82V12.38C91.3428 11.06 90.4628 10.18 89.1428 10.18H88.4828V8.2H99.0428V10.18H97.5028C96.1828 10.18 95.3028 11.06 95.3028 12.38V30.86L105.203 13.04C106.083 11.5 105.643 10.18 104.103 10.18H102.123V8.2H112.683V10.18H112.023C110.703 10.18 109.823 11.06 109.823 12.38V34.82C109.823 36.14 110.703 37.02 112.023 37.02H112.683V39H102.123V37.02H103.663C104.983 37.02 105.863 36.14 105.863 34.82V16.34L95.9628 34.16C95.0828 35.7 95.5228 37.02 97.0628 37.02H99.0428V39H88.4828Z" fill="#37271A"/>
<path d="M40.8681 11.9109C42.1147 8.09198 46.2102 6.01028 50.0155 7.26126C53.8209 8.51225 55.8952 12.6222 54.6486 16.4411" stroke="#37271A" stroke-width="2"/>
<path d="M54.2774 30.8795C58.2807 30.9842 61.6106 27.8125 61.7149 23.7953C61.8192 19.7781 58.6585 16.4366 54.6552 16.3319" stroke="#37271A" stroke-width="2"/>
<path d="M40.3549 35.1052C41.4958 38.9572 45.5325 41.1517 49.3712 40.0068C53.2099 38.8618 55.3969 34.8109 54.256 30.9588" stroke="#37271A" stroke-width="2"/>
<path d="M40.8654 11.9075C37.7244 9.41466 33.1643 9.94911 30.6803 13.1012C28.1963 16.2533 28.729 20.8294 31.87 23.3222" stroke="#37271A" stroke-width="2"/>
<path d="M40.3183 35.0854C37.0566 37.4167 32.5293 36.653 30.2063 33.3798C27.8832 30.1066 28.6441 25.5633 31.9058 23.2321" stroke="#37271A" stroke-width="2"/>
<path d="M40.3196 35.2048L44.6332 23.3233M44.6332 23.3233H31.7842M44.6332 23.3233L54.7288 16.4155M44.6332 23.3233L54.3617 30.968M44.6332 23.3233L40.8702 11.9023" stroke="#37271A" stroke-width="2"/>
<path d="M44.1272 13.5664L39.1509 15.35" stroke="#37271A" stroke-width="2" stroke-linecap="round"/>
<path d="M34.4566 20.6976L34.3338 26.0367" stroke="#37271A" stroke-width="2" stroke-linecap="round"/>
<path d="M43.6106 33.8442L38.8168 31.5225" stroke="#37271A" stroke-width="2" stroke-linecap="round"/>
<path d="M54.0027 27.1225L50.7564 31.3546" stroke="#37271A" stroke-width="2" stroke-linecap="round"/>
<path d="M54.7961 19.4379L51.5893 15.1759" stroke="#37271A" stroke-width="2" stroke-linecap="round"/>
</svg>
