<svg width="380" height="413" viewBox="0 0 380 413" fill="none" xmlns="http://www.w3.org/2000/svg">
<path d="M288.852 314.984L289.507 326.33M273.94 321.865C273.722 318.083 298.417 315.217 298.189 320.333C297.961 325.45 274.158 325.647 273.94 321.865Z" stroke="#37271A" stroke-width="2" stroke-linecap="round"/>
<path d="M280.668 337.518L269.371 338.764M273.019 322.984C276.784 322.569 280.934 347.083 275.812 347.122C270.691 347.161 269.254 323.4 273.019 322.984Z" stroke="#37271A" stroke-width="2" stroke-linecap="round"/>
<path d="M290.785 332.062C290.234 332.672 289.918 333.323 289.815 333.845C289.708 334.39 289.851 334.612 289.921 334.675C289.99 334.737 290.226 334.858 290.757 334.696C291.266 334.541 291.882 334.161 292.433 333.552C292.983 332.942 293.3 332.291 293.402 331.769C293.51 331.224 293.366 331.002 293.297 330.939C293.228 330.877 292.992 330.756 292.461 330.918C291.951 331.073 291.336 331.453 290.785 332.062Z" stroke="#37271A" stroke-width="2"/>
<path d="M283.657 340.062C283.106 340.672 282.79 341.323 282.687 341.845C282.579 342.39 282.723 342.612 282.792 342.675C282.862 342.737 283.097 342.858 283.629 342.696C284.138 342.541 284.753 342.161 285.304 341.552C285.855 340.942 286.171 340.291 286.274 339.769C286.381 339.224 286.238 339.002 286.168 338.939C286.099 338.877 285.864 338.756 285.332 338.918C284.823 339.073 284.207 339.453 283.657 340.062Z" stroke="#37271A" stroke-width="2"/>
<path d="M299.004 329.504L319.932 328.9" stroke="#37271A" stroke-width="2" stroke-linecap="round"/>
<path d="M311.22 333.052L311.019 326.075" stroke="#37271A" stroke-width="2" stroke-linecap="round"/>
<path d="M320.032 332.388L319.831 325.411" stroke="#37271A" stroke-width="2" stroke-linecap="round"/>
<path d="M298.015 335.16L318.429 339.814" stroke="#37271A" stroke-width="2" stroke-linecap="round"/>
<path d="M308.955 341.654L310.506 334.849" stroke="#37271A" stroke-width="2" stroke-linecap="round"/>
<path d="M317.654 343.217L319.205 336.412" stroke="#37271A" stroke-width="2" stroke-linecap="round"/>
<path d="M296.45 340.103L313.076 352.83" stroke="#37271A" stroke-width="2" stroke-linecap="round"/>
<path d="M303.701 350.563L307.943 345.021" stroke="#37271A" stroke-width="2" stroke-linecap="round"/>
<path d="M310.958 355.604L315.2 350.061" stroke="#37271A" stroke-width="2" stroke-linecap="round"/>
<path d="M292.936 344.365L305.104 361.404" stroke="#37271A" stroke-width="2" stroke-linecap="round"/>
<path d="M296.8 356.487L302.48 352.431" stroke="#37271A" stroke-width="2" stroke-linecap="round"/>
<path d="M302.264 363.432L307.944 359.375" stroke="#37271A" stroke-width="2" stroke-linecap="round"/>
<path d="M287.357 347.344L293.156 367.464" stroke="#37271A" stroke-width="2" stroke-linecap="round"/>
<path d="M286.967 360.065L293.673 358.132" stroke="#37271A" stroke-width="2" stroke-linecap="round"/>
<path d="M289.803 368.433L296.509 366.499" stroke="#37271A" stroke-width="2" stroke-linecap="round"/>
<path d="M281.353 347.278L282.687 368.175" stroke="#37271A" stroke-width="2" stroke-linecap="round"/>
<path d="M278.233 359.613L285.198 359.168" stroke="#37271A" stroke-width="2" stroke-linecap="round"/>
<path d="M279.207 368.396L286.172 367.952" stroke="#37271A" stroke-width="2" stroke-linecap="round"/>
<path d="M331.22 330.763L324.546 331.906" stroke="#37271A" stroke-width="2" stroke-linecap="round"/>
<path d="M328.455 334.672L327.312 327.998" stroke="#37271A" stroke-width="2" stroke-linecap="round"/>
<path d="M328.4 341.157L327.144 347.811" stroke="#37271A" stroke-width="2" stroke-linecap="round"/>
<path d="M331.096 345.11L324.442 343.855" stroke="#37271A" stroke-width="2" stroke-linecap="round"/>
<path d="M322.51 353.118L319.548 359.208" stroke="#37271A" stroke-width="2" stroke-linecap="round"/>
<path d="M324.073 357.646L317.984 354.684" stroke="#37271A" stroke-width="2" stroke-linecap="round"/>
<path d="M313.306 366.704L307.938 370.831" stroke="#37271A" stroke-width="2" stroke-linecap="round"/>
<path d="M312.687 371.453L308.56 366.085" stroke="#37271A" stroke-width="2" stroke-linecap="round"/>
<path d="M303.593 371.51L298.225 375.637" stroke="#37271A" stroke-width="2" stroke-linecap="round"/>
<path d="M302.972 376.258L298.846 370.889" stroke="#37271A" stroke-width="2" stroke-linecap="round"/>
<path d="M292.589 374.286L287.221 378.413" stroke="#37271A" stroke-width="2" stroke-linecap="round"/>
<path d="M291.966 379.033L287.839 373.665" stroke="#37271A" stroke-width="2" stroke-linecap="round"/>
<path d="M285.468 383.577C313.22 385.296 338.379 363.32 336.493 329.152" stroke="#37271A" stroke-width="2" stroke-linecap="round"/>
<path d="M301.885 269.259L308.764 278.306M293.357 283.295C291.064 280.28 309.95 264.111 312.618 268.483C315.286 272.855 295.65 286.31 293.357 283.295Z" stroke="#37271A" stroke-width="2" stroke-linecap="round"/>
<path d="M307.679 292.523L299.004 299.865M293.218 284.738C296.11 282.29 313.241 300.309 309.014 303.201C304.788 306.094 290.327 287.185 293.218 284.738Z" stroke="#37271A" stroke-width="2" stroke-linecap="round"/>
<path d="M313.025 282.348C312.909 283.16 313.01 283.877 313.216 284.368C313.431 284.88 313.674 284.984 313.767 284.997C313.859 285.011 314.122 284.979 314.473 284.548C314.808 284.135 315.107 283.476 315.223 282.663C315.34 281.85 315.239 281.133 315.033 280.643C314.817 280.131 314.574 280.026 314.482 280.013C314.389 280 314.126 280.032 313.776 280.462C313.44 280.875 313.142 281.535 313.025 282.348Z" stroke="#37271A" stroke-width="2"/>
<path d="M311.579 292.965C311.463 293.778 311.564 294.494 311.77 294.985C311.985 295.497 312.229 295.601 312.321 295.615C312.414 295.628 312.676 295.596 313.027 295.165C313.363 294.752 313.661 294.093 313.778 293.28C313.894 292.467 313.793 291.751 313.587 291.26C313.372 290.748 313.128 290.644 313.036 290.63C312.943 290.617 312.681 290.649 312.33 291.08C311.994 291.493 311.696 292.152 311.579 292.965Z" stroke="#37271A" stroke-width="2"/>
<path d="M318.415 275.637L335.439 263.449" stroke="#37271A" stroke-width="2" stroke-linecap="round"/>
<path d="M330.53 271.758L326.467 266.082" stroke="#37271A" stroke-width="2" stroke-linecap="round"/>
<path d="M337.469 266.286L333.406 260.611" stroke="#37271A" stroke-width="2" stroke-linecap="round"/>
<path d="M320.753 280.88L340.286 273.341" stroke="#37271A" stroke-width="2" stroke-linecap="round"/>
<path d="M333.455 280.158L330.941 273.647" stroke="#37271A" stroke-width="2" stroke-linecap="round"/>
<path d="M341.542 276.597L339.029 270.085" stroke="#37271A" stroke-width="2" stroke-linecap="round"/>
<path d="M322.216 285.855L343.115 287.129" stroke="#37271A" stroke-width="2" stroke-linecap="round"/>
<path d="M334.071 290.483L334.495 283.517" stroke="#37271A" stroke-width="2" stroke-linecap="round"/>
<path d="M342.905 290.611L343.329 283.645" stroke="#37271A" stroke-width="2" stroke-linecap="round"/>
<path d="M321.679 291.353L341.288 298.694" stroke="#37271A" stroke-width="2" stroke-linecap="round"/>
<path d="M331.654 299.251L334.101 292.714" stroke="#37271A" stroke-width="2" stroke-linecap="round"/>
<path d="M340.064 301.96L342.511 295.423" stroke="#37271A" stroke-width="2" stroke-linecap="round"/>
<path d="M318.716 296.939L334.762 310.392" stroke="#37271A" stroke-width="2" stroke-linecap="round"/>
<path d="M325.496 307.71L329.979 302.361" stroke="#37271A" stroke-width="2" stroke-linecap="round"/>
<path d="M332.521 313.067L337.005 307.719" stroke="#37271A" stroke-width="2" stroke-linecap="round"/>
<path d="M313.697 300.237L326.473 316.827" stroke="#37271A" stroke-width="2" stroke-linecap="round"/>
<path d="M317.998 312.213L323.527 307.954" stroke="#37271A" stroke-width="2" stroke-linecap="round"/>
<path d="M323.71 318.955L329.239 314.697" stroke="#37271A" stroke-width="2" stroke-linecap="round"/>
<path d="M345.843 258.689L340.945 263.364" stroke="#37271A" stroke-width="2" stroke-linecap="round"/>
<path d="M345.732 263.478L341.057 258.579" stroke="#37271A" stroke-width="2" stroke-linecap="round"/>
<path d="M349.309 268.888L351.982 275.109" stroke="#37271A" stroke-width="2" stroke-linecap="round"/>
<path d="M353.752 270.662L347.531 273.336" stroke="#37271A" stroke-width="2" stroke-linecap="round"/>
<path d="M351.101 282.1L352.045 288.805" stroke="#37271A" stroke-width="2" stroke-linecap="round"/>
<path d="M354.926 284.981L348.221 285.925" stroke="#37271A" stroke-width="2" stroke-linecap="round"/>
<path d="M351.053 298.509L348.904 304.93" stroke="#37271A" stroke-width="2" stroke-linecap="round"/>
<path d="M353.19 302.794L346.77 300.645" stroke="#37271A" stroke-width="2" stroke-linecap="round"/>
<path d="M345.679 307.921L343.531 314.342" stroke="#37271A" stroke-width="2" stroke-linecap="round"/>
<path d="M347.816 312.205L341.395 310.056" stroke="#37271A" stroke-width="2" stroke-linecap="round"/>
<path d="M338.102 316.369L335.953 322.79" stroke="#37271A" stroke-width="2" stroke-linecap="round"/>
<path d="M340.235 320.654L333.814 318.505" stroke="#37271A" stroke-width="2" stroke-linecap="round"/>
<path d="M337.382 328.051C361.364 313.979 369.963 281.699 349.318 254.408" stroke="#37271A" stroke-width="2" stroke-linecap="round"/>
<path d="M64.9877 165.11L66.3111 153.822M80.8675 160.92C80.4266 164.682 55.6078 163.221 56.7202 158.222C57.8325 153.222 81.3085 157.158 80.8675 160.92Z" stroke="#37271A" stroke-width="2" stroke-linecap="round"/>
<path d="M76.9567 144.338L88.298 145.07M81.9682 159.978C78.1883 159.734 78.3542 134.872 83.4047 135.722C88.4552 136.571 85.7481 160.221 81.9682 159.978Z" stroke="#37271A" stroke-width="2" stroke-linecap="round"/>
<path d="M66.0465 147.955C66.6945 147.451 67.119 146.865 67.3109 146.368C67.5112 145.85 67.4084 145.606 67.351 145.533C67.2936 145.459 67.0825 145.299 66.5311 145.366C66.0027 145.431 65.3304 145.698 64.6824 146.203C64.0344 146.707 63.6099 147.294 63.418 147.79C63.2177 148.308 63.3205 148.552 63.3779 148.626C63.4354 148.7 63.6465 148.859 64.1979 148.792C64.7262 148.727 65.3986 148.46 66.0465 147.955Z" stroke="#37271A" stroke-width="2"/>
<path d="M74.4547 141.314C75.1027 140.809 75.5272 140.223 75.7191 139.727C75.9194 139.209 75.8166 138.965 75.7592 138.891C75.7018 138.817 75.4907 138.658 74.9393 138.725C74.4109 138.789 73.7386 139.057 73.0906 139.561C72.4426 140.066 72.0181 140.652 71.8262 141.148C71.6259 141.667 71.7287 141.91 71.7861 141.984C71.8436 142.058 72.0547 142.217 72.6061 142.15C73.1344 142.086 73.8068 141.818 74.4547 141.314Z" stroke="#37271A" stroke-width="2"/>
<path d="M57.5093 149.049L36.7929 146.014" stroke="#37271A" stroke-width="2" stroke-linecap="round"/>
<path d="M46.0933 143.436L45.081 150.342" stroke="#37271A" stroke-width="2" stroke-linecap="round"/>
<path d="M37.3003 142.561L36.2881 149.467" stroke="#37271A" stroke-width="2" stroke-linecap="round"/>
<path d="M59.4635 143.65L40.1665 135.526" stroke="#37271A" stroke-width="2" stroke-linecap="round"/>
<path d="M49.8164 135.357L47.1081 141.79" stroke="#37271A" stroke-width="2" stroke-linecap="round"/>
<path d="M41.5205 132.311L38.8122 138.743" stroke="#37271A" stroke-width="2" stroke-linecap="round"/>
<path d="M61.8619 139.054L47.6961 123.636" stroke="#37271A" stroke-width="2" stroke-linecap="round"/>
<path d="M56.5361 127.495L51.3967 132.218" stroke="#37271A" stroke-width="2" stroke-linecap="round"/>
<path d="M50.2632 121.272L45.1238 125.995" stroke="#37271A" stroke-width="2" stroke-linecap="round"/>
<path d="M66.0628 135.467L57.0351 116.575" stroke="#37271A" stroke-width="2" stroke-linecap="round"/>
<path d="M64.3594 122.857L58.0622 125.867" stroke="#37271A" stroke-width="2" stroke-linecap="round"/>
<path d="M60.1831 115.071L53.8859 118.081" stroke="#37271A" stroke-width="2" stroke-linecap="round"/>
<path d="M72.0733 133.501L69.853 112.68" stroke="#37271A" stroke-width="2" stroke-linecap="round"/>
<path d="M74.6646 121.04L67.7247 121.781" stroke="#37271A" stroke-width="2" stroke-linecap="round"/>
<path d="M73.3232 112.308L66.3833 113.048" stroke="#37271A" stroke-width="2" stroke-linecap="round"/>
<path d="M77.9749 134.607L80.2864 113.796" stroke="#37271A" stroke-width="2" stroke-linecap="round"/>
<path d="M83.1875 122.999L76.2509 122.229" stroke="#37271A" stroke-width="2" stroke-linecap="round"/>
<path d="M83.7524 114.181L76.8159 113.411" stroke="#37271A" stroke-width="2" stroke-linecap="round"/>
<path d="M25.999 142.221L32.7698 142.253" stroke="#37271A" stroke-width="2" stroke-linecap="round"/>
<path d="M29.4009 138.851L29.3686 145.622" stroke="#37271A" stroke-width="2" stroke-linecap="round"/>
<path d="M30.5796 132.473L32.9708 126.138" stroke="#37271A" stroke-width="2" stroke-linecap="round"/>
<path d="M28.6104 128.111L34.9449 130.502" stroke="#37271A" stroke-width="2" stroke-linecap="round"/>
<path d="M38.4556 121.715L42.4283 116.231" stroke="#37271A" stroke-width="2" stroke-linecap="round"/>
<path d="M37.7012 116.985L43.184 120.958" stroke="#37271A" stroke-width="2" stroke-linecap="round"/>
<path d="M49.876 109.933L55.8786 106.799" stroke="#37271A" stroke-width="2" stroke-linecap="round"/>
<path d="M51.3101 105.363L54.4426 111.366" stroke="#37271A" stroke-width="2" stroke-linecap="round"/>
<path d="M60.2764 106.884L66.279 103.751" stroke="#37271A" stroke-width="2" stroke-linecap="round"/>
<path d="M61.7109 102.315L64.8435 108.318" stroke="#37271A" stroke-width="2" stroke-linecap="round"/>
<path d="M71.5942 106.059L77.5969 102.925" stroke="#37271A" stroke-width="2" stroke-linecap="round"/>
<path d="M73.0317 101.491L76.1643 107.494" stroke="#37271A" stroke-width="2" stroke-linecap="round"/>
<path d="M114.04 135.48L118.777 125.149M130.438 136.387C128.859 139.83 105.698 130.792 108.297 126.379C110.896 121.965 132.017 132.944 130.438 136.387Z" stroke="#37271A" stroke-width="2" stroke-linecap="round"/>
<path d="M131.827 119.406L142.391 123.597M131.775 135.829C128.255 134.432 136.073 110.831 140.616 113.196C145.159 115.561 135.296 137.226 131.775 135.829Z" stroke="#37271A" stroke-width="2" stroke-linecap="round"/>
<path d="M120.334 119.486C121.106 119.206 121.69 118.779 122.026 118.366C122.376 117.935 122.353 117.671 122.321 117.584C122.289 117.496 122.138 117.279 121.593 117.173C121.07 117.071 120.348 117.119 119.576 117.399C118.804 117.679 118.22 118.106 117.884 118.519C117.534 118.951 117.557 119.214 117.588 119.302C117.62 119.39 117.772 119.607 118.317 119.713C118.84 119.814 119.562 119.767 120.334 119.486Z" stroke="#37271A" stroke-width="2"/>
<path d="M130.38 115.758C131.152 115.478 131.736 115.051 132.072 114.638C132.422 114.207 132.399 113.943 132.367 113.855C132.335 113.767 132.184 113.55 131.638 113.444C131.116 113.343 130.394 113.39 129.622 113.671C128.85 113.951 128.266 114.378 127.93 114.791C127.58 115.222 127.602 115.486 127.634 115.573C127.666 115.661 127.818 115.878 128.363 115.984C128.886 116.086 129.608 116.038 130.38 115.758Z" stroke="#37271A" stroke-width="2"/>
<path d="M111.875 117.892L93.102 108.62" stroke="#37271A" stroke-width="2" stroke-linecap="round"/>
<path d="M102.743 109.033L99.6521 115.291" stroke="#37271A" stroke-width="2" stroke-linecap="round"/>
<path d="M94.6475 105.492L91.5564 111.75" stroke="#37271A" stroke-width="2" stroke-linecap="round"/>
<path d="M115.399 113.358L99.5442 99.6833" stroke="#37271A" stroke-width="2" stroke-linecap="round"/>
<path d="M108.777 102.495L104.219 107.78" stroke="#37271A" stroke-width="2" stroke-linecap="round"/>
<path d="M101.824 97.041L97.2649 102.326" stroke="#37271A" stroke-width="2" stroke-linecap="round"/>
<path d="M119.096 109.725L110.371 90.6917" stroke="#37271A" stroke-width="2" stroke-linecap="round"/>
<path d="M117.592 97.0889L111.248 99.998" stroke="#37271A" stroke-width="2" stroke-linecap="round"/>
<path d="M113.542 89.2354L107.197 92.1444" stroke="#37271A" stroke-width="2" stroke-linecap="round"/>
<path d="M124.197 107.606L121.43 86.8515" stroke="#37271A" stroke-width="2" stroke-linecap="round"/>
<path d="M126.463 95.0869L119.545 96.0099" stroke="#37271A" stroke-width="2" stroke-linecap="round"/>
<path d="M124.888 86.3906L117.97 87.3136" stroke="#37271A" stroke-width="2" stroke-linecap="round"/>
<path d="M130.518 107.59L134.822 87.0978" stroke="#37271A" stroke-width="2" stroke-linecap="round"/>
<path d="M136.824 96.5342L129.993 95.1002" stroke="#37271A" stroke-width="2" stroke-linecap="round"/>
<path d="M138.239 87.8125L131.408 86.3786" stroke="#37271A" stroke-width="2" stroke-linecap="round"/>
<path d="M135.796 110.46L144.408 91.3738" stroke="#37271A" stroke-width="2" stroke-linecap="round"/>
<path d="M144.332 101.024L137.97 98.1543" stroke="#37271A" stroke-width="2" stroke-linecap="round"/>
<path d="M147.588 92.8076L141.227 89.9375" stroke="#37271A" stroke-width="2" stroke-linecap="round"/>
<path d="M84.002 101.688L90.4334 103.804" stroke="#37271A" stroke-width="2" stroke-linecap="round"/>
<path d="M88.2773 99.5303L86.1601 105.962" stroke="#37271A" stroke-width="2" stroke-linecap="round"/>
<path d="M91.3633 93.8262L95.5903 88.5362" stroke="#37271A" stroke-width="2" stroke-linecap="round"/>
<path d="M90.834 89.0703L96.1235 93.2969" stroke="#37271A" stroke-width="2" stroke-linecap="round"/>
<path d="M102.17 86.0225L107.64 82.03" stroke="#37271A" stroke-width="2" stroke-linecap="round"/>
<path d="M102.909 81.2891L106.901 86.7579" stroke="#37271A" stroke-width="2" stroke-linecap="round"/>
<path d="M116.665 78.3281L123.341 77.1971" stroke="#37271A" stroke-width="2" stroke-linecap="round"/>
<path d="M119.438 74.4238L120.568 81.0998" stroke="#37271A" stroke-width="2" stroke-linecap="round"/>
<path d="M127.499 78.6348L134.175 77.5037" stroke="#37271A" stroke-width="2" stroke-linecap="round"/>
<path d="M130.271 74.7305L131.401 81.4065" stroke="#37271A" stroke-width="2" stroke-linecap="round"/>
<path d="M138.524 81.334L145.2 80.203" stroke="#37271A" stroke-width="2" stroke-linecap="round"/>
<path d="M141.299 77.4326L142.429 84.1086" stroke="#37271A" stroke-width="2" stroke-linecap="round"/>
<path d="M163.055 123.968L171.755 116.656M177.49 131.801C174.59 134.238 157.519 116.164 161.756 113.286C165.992 110.408 180.39 129.364 177.49 131.801Z" stroke="#37271A" stroke-width="2" stroke-linecap="round"/>
<path d="M186.008 117.045L193.765 125.352M178.938 131.869C176.353 129.101 193.513 111.11 196.609 115.191C199.704 119.271 181.523 134.637 178.938 131.869Z" stroke="#37271A" stroke-width="2" stroke-linecap="round"/>
<path d="M175.584 112.202C176.402 112.279 177.113 112.143 177.593 111.913C178.094 111.673 178.186 111.425 178.195 111.332C178.204 111.239 178.159 110.978 177.712 110.649C177.283 110.334 176.61 110.068 175.792 109.991C174.975 109.915 174.264 110.051 173.784 110.28C173.283 110.52 173.19 110.768 173.182 110.862C173.173 110.955 173.217 111.215 173.665 111.544C174.094 111.86 174.767 112.126 175.584 112.202Z" stroke="#37271A" stroke-width="2"/>
<path d="M186.259 113.129C187.077 113.206 187.788 113.07 188.268 112.84C188.769 112.6 188.861 112.352 188.87 112.259C188.878 112.166 188.834 111.905 188.386 111.576C187.958 111.261 187.285 110.995 186.467 110.918C185.649 110.841 184.938 110.977 184.458 111.207C183.957 111.447 183.865 111.695 183.857 111.788C183.848 111.881 183.892 112.142 184.34 112.471C184.769 112.786 185.442 113.052 186.259 113.129Z" stroke="#37271A" stroke-width="2"/>
<path d="M168.619 107.148L155.614 90.7393" stroke="#37271A" stroke-width="2" stroke-linecap="round"/>
<path d="M164.153 95.2354L158.683 99.5704" stroke="#37271A" stroke-width="2" stroke-linecap="round"/>
<path d="M158.349 88.5732L152.879 92.9083" stroke="#37271A" stroke-width="2" stroke-linecap="round"/>
<path d="M173.742 104.556L165.259 85.4143" stroke="#37271A" stroke-width="2" stroke-linecap="round"/>
<path d="M172.402 91.9062L166.021 94.7344" stroke="#37271A" stroke-width="2" stroke-linecap="round"/>
<path d="M168.45 84.002L162.069 86.8301" stroke="#37271A" stroke-width="2" stroke-linecap="round"/>
<path d="M178.638 102.853L178.89 81.9165" stroke="#37271A" stroke-width="2" stroke-linecap="round"/>
<path d="M182.682 90.7881L175.703 90.7045" stroke="#37271A" stroke-width="2" stroke-linecap="round"/>
<path d="M182.378 81.957L175.399 81.8735" stroke="#37271A" stroke-width="2" stroke-linecap="round"/>
<path d="M184.156 103.12L190.53 83.176" stroke="#37271A" stroke-width="2" stroke-linecap="round"/>
<path d="M191.558 92.7725L184.91 90.6482" stroke="#37271A" stroke-width="2" stroke-linecap="round"/>
<path d="M193.854 84.2393L187.206 82.115" stroke="#37271A" stroke-width="2" stroke-linecap="round"/>
<path d="M189.878 105.806L202.531 89.1228" stroke="#37271A" stroke-width="2" stroke-linecap="round"/>
<path d="M200.305 98.5088L194.744 94.2916" stroke="#37271A" stroke-width="2" stroke-linecap="round"/>
<path d="M205.312 91.2295L199.751 87.0123" stroke="#37271A" stroke-width="2" stroke-linecap="round"/>
<path d="M193.421 110.659L209.368 97.0887" stroke="#37271A" stroke-width="2" stroke-linecap="round"/>
<path d="M205.173 105.78L200.65 100.465" stroke="#37271A" stroke-width="2" stroke-linecap="round"/>
<path d="M211.629 99.7441L207.106 94.4291" stroke="#37271A" stroke-width="2" stroke-linecap="round"/>
<path d="M150.355 80.5771L155.263 85.241" stroke="#37271A" stroke-width="2" stroke-linecap="round"/>
<path d="M155.141 80.4551L150.476 85.3636" stroke="#37271A" stroke-width="2" stroke-linecap="round"/>
<path d="M160.369 76.6162L166.452 73.642" stroke="#37271A" stroke-width="2" stroke-linecap="round"/>
<path d="M161.924 72.0918L164.898 78.1745" stroke="#37271A" stroke-width="2" stroke-linecap="round"/>
<path d="M173.477 74.1855L180.128 72.9154" stroke="#37271A" stroke-width="2" stroke-linecap="round"/>
<path d="M176.169 70.2227L177.439 76.8733" stroke="#37271A" stroke-width="2" stroke-linecap="round"/>
<path d="M189.87 73.4307L196.388 75.2632" stroke="#37271A" stroke-width="2" stroke-linecap="round"/>
<path d="M194.045 71.0869L192.212 77.6051" stroke="#37271A" stroke-width="2" stroke-linecap="round"/>
<path d="M199.531 78.3398L206.05 80.1724" stroke="#37271A" stroke-width="2" stroke-linecap="round"/>
<path d="M203.707 75.9961L201.873 82.5143" stroke="#37271A" stroke-width="2" stroke-linecap="round"/>
<path d="M208.341 85.4932L214.86 87.3257" stroke="#37271A" stroke-width="2" stroke-linecap="round"/>
<path d="M212.518 83.1543L210.685 89.6725" stroke="#37271A" stroke-width="2" stroke-linecap="round"/>
<path d="M223.447 83.55C209.49 64.9328 176.771 52.073 150.396 74.1528C127.649 59.8177 91.6743 69.7075 80.2188 98.1431C53.1855 91.6366 24.5955 108.914 20.5257 142.892" stroke="#37271A" stroke-width="2" stroke-linecap="round"/>
<path d="M300.578 244.905L306.387 235.136M290.513 231.927C288.577 235.183 309.175 249.105 311.33 244.458C313.485 239.812 292.449 228.671 290.513 231.927Z" stroke="#37271A" stroke-width="2" stroke-linecap="round"/>
<path d="M303.696 221.134L294.244 214.824M290.212 230.51C293.362 232.613 308.339 212.767 303.811 210.373C299.284 207.979 287.062 228.406 290.212 230.51Z" stroke="#37271A" stroke-width="2" stroke-linecap="round"/>
<path d="M310.163 230.637C309.955 229.842 309.974 229.119 310.123 228.608C310.279 228.075 310.509 227.944 310.599 227.92C310.689 227.896 310.954 227.898 311.351 228.286C311.732 228.658 312.103 229.28 312.311 230.074C312.519 230.869 312.5 231.592 312.351 232.103C312.195 232.636 311.965 232.767 311.875 232.791C311.784 232.815 311.52 232.813 311.122 232.425C310.742 232.052 310.371 231.431 310.163 230.637Z" stroke="#37271A" stroke-width="2"/>
<path d="M307.522 220.252C307.314 219.458 307.333 218.734 307.482 218.223C307.638 217.69 307.867 217.559 307.958 217.535C308.048 217.512 308.313 217.513 308.71 217.902C309.091 218.274 309.462 218.895 309.67 219.689C309.878 220.484 309.859 221.207 309.709 221.718C309.554 222.251 309.324 222.382 309.233 222.406C309.143 222.43 308.878 222.428 308.481 222.04C308.101 221.668 307.73 221.046 307.522 220.252Z" stroke="#37271A" stroke-width="2"/>
<path d="M316.278 236.693L334.575 246.871" stroke="#37271A" stroke-width="2" stroke-linecap="round"/>
<path d="M328.755 239.173L325.363 245.273" stroke="#37271A" stroke-width="2" stroke-linecap="round"/>
<path d="M336.27 243.821L332.877 249.921" stroke="#37271A" stroke-width="2" stroke-linecap="round"/>
<path d="M318.005 231.217L338.268 236.491" stroke="#37271A" stroke-width="2" stroke-linecap="round"/>
<path d="M330.707 230.493L328.949 237.248" stroke="#37271A" stroke-width="2" stroke-linecap="round"/>
<path d="M339.146 233.114L337.388 239.869" stroke="#37271A" stroke-width="2" stroke-linecap="round"/>
<path d="M318.895 226.109L339.515 222.473" stroke="#37271A" stroke-width="2" stroke-linecap="round"/>
<path d="M330.148 220.167L331.36 227.041" stroke="#37271A" stroke-width="2" stroke-linecap="round"/>
<path d="M338.911 219.037L340.123 225.911" stroke="#37271A" stroke-width="2" stroke-linecap="round"/>
<path d="M317.738 220.708L336.388 211.19" stroke="#37271A" stroke-width="2" stroke-linecap="round"/>
<path d="M326.753 211.729L329.925 217.946" stroke="#37271A" stroke-width="2" stroke-linecap="round"/>
<path d="M334.802 208.083L337.974 214.3" stroke="#37271A" stroke-width="2" stroke-linecap="round"/>
<path d="M314.161 215.494L328.577 200.307" stroke="#37271A" stroke-width="2" stroke-linecap="round"/>
<path d="M319.675 204.023L324.736 208.829" stroke="#37271A" stroke-width="2" stroke-linecap="round"/>
<path d="M326.047 197.903L331.108 202.709" stroke="#37271A" stroke-width="2" stroke-linecap="round"/>
<path d="M308.801 212.788L319.612 194.855" stroke="#37271A" stroke-width="2" stroke-linecap="round"/>
<path d="M311.715 200.401L317.692 204.005" stroke="#37271A" stroke-width="2" stroke-linecap="round"/>
<path d="M316.625 193.055L322.602 196.658" stroke="#37271A" stroke-width="2" stroke-linecap="round"/>
<path d="M345.451 250.42L340.055 246.331" stroke="#37271A" stroke-width="2" stroke-linecap="round"/>
<path d="M344.798 245.677L340.709 251.074" stroke="#37271A" stroke-width="2" stroke-linecap="round"/>
<path d="M347.738 239.895L349.689 233.41" stroke="#37271A" stroke-width="2" stroke-linecap="round"/>
<path d="M351.952 237.628L345.468 235.677" stroke="#37271A" stroke-width="2" stroke-linecap="round"/>
<path d="M348.02 226.564L348.197 219.795" stroke="#37271A" stroke-width="2" stroke-linecap="round"/>
<path d="M351.494 223.267L344.725 223.09" stroke="#37271A" stroke-width="2" stroke-linecap="round"/>
<path d="M346.11 210.267L343.247 204.131" stroke="#37271A" stroke-width="2" stroke-linecap="round"/>
<path d="M347.749 205.767L341.613 208.63" stroke="#37271A" stroke-width="2" stroke-linecap="round"/>
<path d="M339.704 201.525L336.84 195.389" stroke="#37271A" stroke-width="2" stroke-linecap="round"/>
<path d="M341.34 197.025L335.205 199.889" stroke="#37271A" stroke-width="2" stroke-linecap="round"/>
<path d="M331.217 193.991L328.354 187.855" stroke="#37271A" stroke-width="2" stroke-linecap="round"/>
<path d="M332.851 189.491L326.715 192.355" stroke="#37271A" stroke-width="2" stroke-linecap="round"/>
<path d="M279.63 191.563L282.145 180.48M266.055 182.319C265.217 186.013 289.102 192.91 289.721 187.826C290.339 182.741 266.894 178.625 266.055 182.319Z" stroke="#37271A" stroke-width="2" stroke-linecap="round"/>
<path d="M275.272 167.988L264.335 164.897M265.333 181.062C268.978 182.092 277.11 158.598 272.065 157.715C267.021 156.832 261.688 180.032 265.333 181.062Z" stroke="#37271A" stroke-width="2" stroke-linecap="round"/>
<path d="M284.35 175.037C283.908 174.346 283.703 173.651 283.687 173.119C283.671 172.564 283.849 172.369 283.928 172.318C284.007 172.268 284.259 172.188 284.757 172.435C285.233 172.672 285.778 173.148 286.221 173.84C286.663 174.532 286.868 175.226 286.883 175.758C286.9 176.313 286.721 176.509 286.643 176.559C286.564 176.609 286.312 176.689 285.814 176.442C285.338 176.206 284.793 175.729 284.35 175.037Z" stroke="#37271A" stroke-width="2"/>
<path d="M278.637 165.971C278.195 165.279 277.99 164.585 277.974 164.053C277.958 163.498 278.137 163.302 278.215 163.252C278.294 163.201 278.546 163.121 279.044 163.369C279.52 163.605 280.065 164.082 280.508 164.774C280.95 165.465 281.155 166.159 281.171 166.691C281.187 167.247 281.008 167.442 280.93 167.493C280.851 167.543 280.599 167.623 280.101 167.376C279.625 167.139 279.08 166.662 278.637 165.971Z" stroke="#37271A" stroke-width="2"/>
<path d="M292.036 178.911L312.58 182.956" stroke="#37271A" stroke-width="2" stroke-linecap="round"/>
<path d="M304.671 177.426L303.323 184.274" stroke="#37271A" stroke-width="2" stroke-linecap="round"/>
<path d="M313.253 179.533L311.905 186.382" stroke="#37271A" stroke-width="2" stroke-linecap="round"/>
<path d="M291.993 173.17L312.894 171.944" stroke="#37271A" stroke-width="2" stroke-linecap="round"/>
<path d="M303.853 168.566L304.262 175.534" stroke="#37271A" stroke-width="2" stroke-linecap="round"/>
<path d="M312.689 168.46L313.098 175.428" stroke="#37271A" stroke-width="2" stroke-linecap="round"/>
<path d="M291.265 168.037L309.761 158.224" stroke="#37271A" stroke-width="2" stroke-linecap="round"/>
<path d="M300.138 158.915L303.409 165.081" stroke="#37271A" stroke-width="2" stroke-linecap="round"/>
<path d="M308.127 155.14L311.398 161.306" stroke="#37271A" stroke-width="2" stroke-linecap="round"/>
<path d="M288.501 163.256L303.311 148.454" stroke="#37271A" stroke-width="2" stroke-linecap="round"/>
<path d="M294.31 151.935L299.243 156.872" stroke="#37271A" stroke-width="2" stroke-linecap="round"/>
<path d="M300.845 145.985L305.779 150.922" stroke="#37271A" stroke-width="2" stroke-linecap="round"/>
<path d="M283.49 159.4L292.525 140.511" stroke="#37271A" stroke-width="2" stroke-linecap="round"/>
<path d="M285.201 146.79L291.497 149.802" stroke="#37271A" stroke-width="2" stroke-linecap="round"/>
<path d="M289.377 139.003L295.673 142.015" stroke="#37271A" stroke-width="2" stroke-linecap="round"/>
<path d="M277.555 158.473L282.315 138.082" stroke="#37271A" stroke-width="2" stroke-linecap="round"/>
<path d="M276.51 145.791L283.307 147.378" stroke="#37271A" stroke-width="2" stroke-linecap="round"/>
<path d="M278.917 137.288L285.714 138.875" stroke="#37271A" stroke-width="2" stroke-linecap="round"/>
<path d="M324.019 182.98L317.625 180.753" stroke="#37271A" stroke-width="2" stroke-linecap="round"/>
<path d="M321.935 178.669L319.707 185.064" stroke="#37271A" stroke-width="2" stroke-linecap="round"/>
<path d="M322.951 172.264L322.809 165.494" stroke="#37271A" stroke-width="2" stroke-linecap="round"/>
<path d="M326.262 168.808L319.492 168.95" stroke="#37271A" stroke-width="2" stroke-linecap="round"/>
<path d="M319.11 159.498L317.193 153.004" stroke="#37271A" stroke-width="2" stroke-linecap="round"/>
<path d="M321.4 155.291L314.906 157.208" stroke="#37271A" stroke-width="2" stroke-linecap="round"/>
<path d="M312.275 144.58L307.66 139.625" stroke="#37271A" stroke-width="2" stroke-linecap="round"/>
<path d="M312.446 139.794L307.492 144.409" stroke="#37271A" stroke-width="2" stroke-linecap="round"/>
<path d="M303.485 138.24L298.871 133.285" stroke="#37271A" stroke-width="2" stroke-linecap="round"/>
<path d="M303.657 133.454L298.702 138.069" stroke="#37271A" stroke-width="2" stroke-linecap="round"/>
<path d="M293.088 133.683L288.474 128.727" stroke="#37271A" stroke-width="2" stroke-linecap="round"/>
<path d="M293.255 128.898L288.301 133.513" stroke="#37271A" stroke-width="2" stroke-linecap="round"/>
<path d="M247.698 152.636L245.233 141.542M231.475 150.085C232.296 153.782 256.837 149.802 255.222 144.942C253.606 140.082 230.653 146.387 231.475 150.085Z" stroke="#37271A" stroke-width="2" stroke-linecap="round"/>
<path d="M233.677 133.189L222.469 135.072M230.284 149.258C234.019 148.631 231.323 123.915 226.385 125.275C221.448 126.634 226.548 149.886 230.284 149.258Z" stroke="#37271A" stroke-width="2" stroke-linecap="round"/>
<path d="M244.898 135.677C244.202 135.241 243.72 134.701 243.479 134.227C243.227 133.732 243.304 133.479 243.354 133.4C243.404 133.32 243.597 133.14 244.153 133.151C244.685 133.161 245.381 133.359 246.077 133.795C246.773 134.231 247.255 134.771 247.496 135.245C247.748 135.74 247.671 135.993 247.621 136.072C247.572 136.152 247.378 136.332 246.823 136.321C246.29 136.311 245.594 136.113 244.898 135.677Z" stroke="#37271A" stroke-width="2"/>
<path d="M235.858 129.926C235.162 129.49 234.68 128.95 234.438 128.476C234.186 127.981 234.264 127.728 234.313 127.649C234.363 127.569 234.557 127.389 235.112 127.4C235.644 127.41 236.34 127.608 237.036 128.044C237.732 128.48 238.214 129.02 238.456 129.494C238.708 129.989 238.63 130.242 238.581 130.321C238.531 130.401 238.337 130.581 237.782 130.57C237.25 130.56 236.554 130.362 235.858 129.926Z" stroke="#37271A" stroke-width="2"/>
<path d="M253.501 135.898L273.801 130.769" stroke="#37271A" stroke-width="2" stroke-linecap="round"/>
<path d="M264.288 129.149L265.998 135.916" stroke="#37271A" stroke-width="2" stroke-linecap="round"/>
<path d="M272.945 127.386L274.655 134.153" stroke="#37271A" stroke-width="2" stroke-linecap="round"/>
<path d="M251.007 130.724L269.377 120.678" stroke="#37271A" stroke-width="2" stroke-linecap="round"/>
<path d="M259.759 121.492L263.108 127.616" stroke="#37271A" stroke-width="2" stroke-linecap="round"/>
<path d="M267.701 117.617L271.05 123.741" stroke="#37271A" stroke-width="2" stroke-linecap="round"/>
<path d="M248.154 126.395L260.677 109.615" stroke="#37271A" stroke-width="2" stroke-linecap="round"/>
<path d="M252.274 114.356L257.868 118.531" stroke="#37271A" stroke-width="2" stroke-linecap="round"/>
<path d="M257.882 107.528L263.475 111.703" stroke="#37271A" stroke-width="2" stroke-linecap="round"/>
<path d="M243.61 123.256L250.667 103.543" stroke="#37271A" stroke-width="2" stroke-linecap="round"/>
<path d="M244.019 110.539L250.59 112.892" stroke="#37271A" stroke-width="2" stroke-linecap="round"/>
<path d="M247.381 102.368L253.952 104.721" stroke="#37271A" stroke-width="2" stroke-linecap="round"/>
<path d="M237.433 121.912L237.523 100.973" stroke="#37271A" stroke-width="2" stroke-linecap="round"/>
<path d="M233.587 109.78L240.566 109.811" stroke="#37271A" stroke-width="2" stroke-linecap="round"/>
<path d="M234.033 100.956L241.012 100.986" stroke="#37271A" stroke-width="2" stroke-linecap="round"/>
<path d="M231.67 123.612L227.252 103.144" stroke="#37271A" stroke-width="2" stroke-linecap="round"/>
<path d="M225.302 112.597L232.124 111.124" stroke="#37271A" stroke-width="2" stroke-linecap="round"/>
<path d="M223.843 103.88L230.665 102.408" stroke="#37271A" stroke-width="2" stroke-linecap="round"/>
<path d="M284.153 125.895L277.42 126.616" stroke="#37271A" stroke-width="2" stroke-linecap="round"/>
<path d="M280.426 122.89L281.148 129.622" stroke="#37271A" stroke-width="2" stroke-linecap="round"/>
<path d="M278.606 116.663L275.583 110.604" stroke="#37271A" stroke-width="2" stroke-linecap="round"/>
<path d="M280.121 112.124L274.063 115.147" stroke="#37271A" stroke-width="2" stroke-linecap="round"/>
<path d="M269.674 106.768L265.164 101.717" stroke="#37271A" stroke-width="2" stroke-linecap="round"/>
<path d="M269.943 101.984L264.893 106.495" stroke="#37271A" stroke-width="2" stroke-linecap="round"/>
<path d="M257.114 96.2051L250.823 93.6992" stroke="#37271A" stroke-width="2" stroke-linecap="round"/>
<path d="M255.222 91.8066L252.717 98.0972" stroke="#37271A" stroke-width="2" stroke-linecap="round"/>
<path d="M246.457 94.2344L240.167 91.7285" stroke="#37271A" stroke-width="2" stroke-linecap="round"/>
<path d="M244.565 89.8359L242.06 96.1265" stroke="#37271A" stroke-width="2" stroke-linecap="round"/>
<path d="M235.113 94.5605L228.823 92.0547" stroke="#37271A" stroke-width="2" stroke-linecap="round"/>
<path d="M233.218 90.165L230.713 96.4556" stroke="#37271A" stroke-width="2" stroke-linecap="round"/>
<path d="M224.298 83.8379C246.695 77.5338 280.495 87.2042 288.023 120.767C314.8 123.206 337.36 152.922 329.177 182.466C354.6 193.727 366.806 224.822 349.39 254.279" stroke="#37271A" stroke-width="2" stroke-linecap="round"/>
</svg>
